<svg width="680" height="348" viewBox="0 0 680 348" fill="none" xmlns="http://www.w3.org/2000/svg">
<g clip-path="url(#clip0_476_3150)">
<path d="M0 12C0 5.37259 5.37258 0 12 0H668C674.627 0 680 5.37258 680 12V336C680 342.627 674.627 348 668 348H12C5.3726 348 0 342.627 0 336V12Z" fill="#F8F8F8"/>
<path d="M33.1279 154.5V144.314H34.6865V148.648H36.0332L39.2119 144.314H41.085L37.3457 149.257L41.249 154.5H39.3828L36.0674 149.968H34.6865V154.5H33.1279ZM44.6764 154.671C44.1933 154.671 43.7558 154.582 43.3639 154.404C42.9719 154.222 42.662 153.958 42.4342 153.611C42.2063 153.265 42.0924 152.841 42.0924 152.34C42.0924 151.907 42.1744 151.551 42.3385 151.273C42.5071 150.995 42.7327 150.774 43.0152 150.61C43.3023 150.446 43.6191 150.323 43.9654 150.241C44.3163 150.159 44.6718 150.098 45.0318 150.057C45.483 150.002 45.8499 149.959 46.1324 149.927C46.415 149.89 46.6223 149.833 46.7545 149.756C46.8912 149.674 46.9596 149.544 46.9596 149.366V149.325C46.9596 149.038 46.9049 148.797 46.7955 148.601C46.6861 148.405 46.5221 148.254 46.3033 148.149C46.0891 148.04 45.8202 147.985 45.4967 147.985C45.164 147.985 44.8769 148.038 44.6354 148.143C44.3984 148.243 44.2047 148.373 44.0543 148.532C43.9085 148.692 43.7991 148.858 43.7262 149.031L42.3111 148.662C42.4843 148.206 42.7327 147.84 43.0562 147.562C43.3798 147.284 43.7512 147.081 44.1705 146.953C44.5898 146.826 45.0227 146.762 45.4693 146.762C45.7792 146.762 46.1074 146.798 46.4537 146.871C46.8001 146.944 47.1259 147.076 47.4312 147.268C47.7366 147.459 47.985 147.728 48.1764 148.074C48.3678 148.421 48.4635 148.872 48.4635 149.428V154.5H47.0074V153.454H46.9322C46.832 153.65 46.6839 153.841 46.4879 154.028C46.2919 154.215 46.0436 154.37 45.7428 154.493C45.4465 154.612 45.0911 154.671 44.6764 154.671ZM45.0113 153.461C45.4215 153.461 45.7724 153.381 46.0641 153.222C46.3557 153.062 46.579 152.85 46.734 152.586C46.8889 152.322 46.9664 152.041 46.9664 151.745V150.768C46.9117 150.822 46.8069 150.872 46.652 150.918C46.5016 150.959 46.3284 150.998 46.1324 151.034C45.9365 151.066 45.7473 151.093 45.565 151.116C45.3827 151.139 45.2324 151.157 45.1139 151.171C44.8313 151.207 44.5715 151.269 44.3346 151.355C44.1021 151.442 43.9153 151.565 43.774 151.725C43.6373 151.884 43.5689 152.096 43.5689 152.36C43.5689 152.602 43.6305 152.805 43.7535 152.969C43.8811 153.133 44.052 153.256 44.2662 153.338C44.4804 153.42 44.7288 153.461 45.0113 153.461ZM50.3937 154.5V146.857H51.8977V150.104H52.6018L55.1379 146.857H56.9768L54.0373 150.583L57.0178 154.5H55.1652L52.8684 151.403H51.8977V154.5H50.3937ZM64.9184 154.657C64.1983 154.657 63.5717 154.493 63.0385 154.165C62.5053 153.837 62.0906 153.377 61.7943 152.784C61.4981 152.192 61.35 151.504 61.35 150.72C61.35 149.927 61.4981 149.234 61.7943 148.642C62.0906 148.045 62.5053 147.582 63.0385 147.254C63.5717 146.926 64.1983 146.762 64.9184 146.762C65.3148 146.762 65.6863 146.814 66.0326 146.919C66.379 147.019 66.6911 147.167 66.9691 147.363C67.2517 147.555 67.4887 147.792 67.6801 148.074C67.876 148.352 68.0219 148.667 68.1176 149.018L66.6889 149.359C66.6387 149.163 66.5613 148.986 66.4564 148.826C66.3516 148.662 66.224 148.521 66.0736 148.402C65.9278 148.284 65.7569 148.193 65.5609 148.129C65.3695 148.065 65.1576 148.033 64.9252 148.033C64.4649 148.033 64.0821 148.156 63.7768 148.402C63.476 148.644 63.2504 148.967 63.1 149.373C62.9542 149.779 62.8813 150.228 62.8813 150.72C62.8813 151.207 62.9542 151.654 63.1 152.06C63.2504 152.461 63.476 152.782 63.7768 153.023C64.0821 153.265 64.4649 153.386 64.9252 153.386C65.1622 153.386 65.3786 153.354 65.5746 153.29C65.7706 153.222 65.946 153.128 66.101 153.01C66.2559 152.887 66.3858 152.741 66.4906 152.572C66.5954 152.399 66.6706 152.21 66.7162 152.005L68.1381 152.347C68.0469 152.707 67.9034 153.03 67.7074 153.317C67.5115 153.6 67.2722 153.841 66.9896 154.042C66.7117 154.243 66.3972 154.395 66.0463 154.5C65.6954 154.605 65.3194 154.657 64.9184 154.657ZM76.0088 146.857V154.5H74.5049V148.156H71.1963V154.5H69.6855V146.857H76.0088ZM77.9391 157.357V146.857H79.402V148.102H79.525C79.6161 147.942 79.7415 147.757 79.901 147.548C80.065 147.338 80.2906 147.156 80.5777 147.001C80.8694 146.841 81.2545 146.762 81.733 146.762C82.3437 146.762 82.8883 146.917 83.3668 147.227C83.8499 147.536 84.2304 147.985 84.5084 148.573C84.7864 149.161 84.9254 149.87 84.9254 150.699C84.9254 151.52 84.7887 152.226 84.5152 152.818C84.2418 153.406 83.8635 153.86 83.3805 154.179C82.902 154.493 82.3528 154.65 81.733 154.65C81.2727 154.65 80.8945 154.573 80.5982 154.418C80.3066 154.258 80.0764 154.074 79.9078 153.864C79.7438 153.655 79.6161 153.468 79.525 153.304H79.443V157.357H77.9391ZM81.398 153.372C81.8355 153.372 82.2024 153.254 82.4986 153.017C82.7949 152.78 83.0159 152.458 83.1617 152.053C83.3121 151.647 83.3873 151.191 83.3873 150.686C83.3873 150.184 83.3121 149.735 83.1617 149.339C83.0159 148.938 82.7949 148.621 82.4986 148.389C82.207 148.156 81.8401 148.04 81.398 148.04C80.9697 148.04 80.6074 148.152 80.3111 148.375C80.0149 148.594 79.7916 148.901 79.6412 149.298C79.4908 149.69 79.4156 150.152 79.4156 150.686C79.4156 151.214 79.4908 151.681 79.6412 152.087C79.7962 152.488 80.0217 152.802 80.318 153.03C80.6142 153.258 80.9742 153.372 81.398 153.372ZM88.7697 154.671C88.2867 154.671 87.8492 154.582 87.4572 154.404C87.0653 154.222 86.7554 153.958 86.5275 153.611C86.2997 153.265 86.1857 152.841 86.1857 152.34C86.1857 151.907 86.2678 151.551 86.4318 151.273C86.6005 150.995 86.826 150.774 87.1086 150.61C87.3957 150.446 87.7124 150.323 88.0588 150.241C88.4097 150.159 88.7652 150.098 89.1252 150.057C89.5764 150.002 89.9432 149.959 90.2258 149.927C90.5083 149.89 90.7157 149.833 90.8479 149.756C90.9846 149.674 91.0529 149.544 91.0529 149.366V149.325C91.0529 149.038 90.9982 148.797 90.8889 148.601C90.7795 148.405 90.6154 148.254 90.3967 148.149C90.1825 148.04 89.9136 147.985 89.59 147.985C89.2574 147.985 88.9702 148.038 88.7287 148.143C88.4917 148.243 88.298 148.373 88.1477 148.532C88.0018 148.692 87.8924 148.858 87.8195 149.031L86.4045 148.662C86.5777 148.206 86.826 147.84 87.1496 147.562C87.4732 147.284 87.8446 147.081 88.2639 146.953C88.6831 146.826 89.1161 146.762 89.5627 146.762C89.8726 146.762 90.2007 146.798 90.5471 146.871C90.8934 146.944 91.2193 147.076 91.5246 147.268C91.8299 147.459 92.0783 147.728 92.2697 148.074C92.4611 148.421 92.5568 148.872 92.5568 149.428V154.5H91.1008V153.454H91.0256C90.9253 153.65 90.7772 153.841 90.5812 154.028C90.3853 154.215 90.1369 154.37 89.8361 154.493C89.5399 154.612 89.1844 154.671 88.7697 154.671ZM89.1047 153.461C89.5148 153.461 89.8658 153.381 90.1574 153.222C90.4491 153.062 90.6724 152.85 90.8273 152.586C90.9823 152.322 91.0598 152.041 91.0598 151.745V150.768C91.0051 150.822 90.9003 150.872 90.7453 150.918C90.5949 150.959 90.4217 150.998 90.2258 151.034C90.0298 151.066 89.8407 151.093 89.6584 151.116C89.4761 151.139 89.3257 151.157 89.2072 151.171C88.9247 151.207 88.6649 151.269 88.4279 151.355C88.1955 151.442 88.0087 151.565 87.8674 151.725C87.7307 151.884 87.6623 152.096 87.6623 152.36C87.6623 152.602 87.7238 152.805 87.8469 152.969C87.9745 153.133 88.1454 153.256 88.3596 153.338C88.5738 153.42 88.8221 153.461 89.1047 153.461ZM94.4871 154.5V146.857H97.6521C98.5135 146.857 99.1971 147.042 99.7029 147.411C100.213 147.776 100.469 148.272 100.469 148.901C100.469 149.339 100.327 149.69 100.045 149.954C99.7667 150.218 99.3862 150.398 98.9031 150.494C99.2495 150.531 99.5662 150.633 99.8533 150.802C100.14 150.966 100.371 151.187 100.544 151.465C100.717 151.738 100.804 152.064 100.804 152.442C100.804 152.843 100.696 153.201 100.482 153.516C100.273 153.826 99.9695 154.067 99.573 154.24C99.1766 154.413 98.698 154.5 98.1375 154.5H94.4871ZM95.9021 153.235H98.1375C98.5021 153.235 98.7869 153.149 98.992 152.976C99.1971 152.802 99.2996 152.568 99.2996 152.271C99.2996 151.916 99.1971 151.64 98.992 151.444C98.7869 151.244 98.5021 151.144 98.1375 151.144H95.9021V153.235ZM95.9021 150.043H97.6658C98.0851 150.043 98.4109 149.956 98.6434 149.783C98.8803 149.61 98.9988 149.373 98.9988 149.072C98.9988 148.781 98.8781 148.553 98.6365 148.389C98.3995 148.22 98.0714 148.136 97.6521 148.136H95.9021V150.043ZM108.756 154.5H107.252V149.325H107.17L103.718 154.5H102.358V146.857H103.862V152.039H103.937L107.396 146.857H108.756V154.5ZM112.286 154.5V148.129H109.805V146.857H116.258V148.129H113.79V154.5H112.286ZM118.619 149.482H120.84C121.469 149.482 122.003 149.59 122.44 149.804C122.878 150.013 123.21 150.305 123.438 150.679C123.666 151.052 123.78 151.485 123.78 151.978C123.78 152.456 123.664 152.887 123.431 153.27C123.203 153.648 122.871 153.949 122.433 154.172C122 154.391 121.469 154.5 120.84 154.5H117.484V146.857H118.988V153.201H120.84C121.264 153.201 121.611 153.092 121.879 152.873C122.148 152.654 122.283 152.369 122.283 152.019C122.283 151.649 122.148 151.351 121.879 151.123C121.611 150.895 121.264 150.781 120.84 150.781H118.619V149.482ZM128.568 154.657C127.848 154.657 127.221 154.493 126.688 154.165C126.154 153.837 125.74 153.377 125.444 152.784C125.147 152.192 124.999 151.504 124.999 150.72C124.999 149.927 125.147 149.234 125.444 148.642C125.74 148.045 126.154 147.582 126.688 147.254C127.221 146.926 127.848 146.762 128.568 146.762C128.964 146.762 129.335 146.814 129.682 146.919C130.028 147.019 130.34 147.167 130.618 147.363C130.901 147.555 131.138 147.792 131.329 148.074C131.525 148.352 131.671 148.667 131.767 149.018L130.338 149.359C130.288 149.163 130.21 148.986 130.106 148.826C130.001 148.662 129.873 148.521 129.723 148.402C129.577 148.284 129.406 148.193 129.21 148.129C129.019 148.065 128.807 148.033 128.574 148.033C128.114 148.033 127.731 148.156 127.426 148.402C127.125 148.644 126.9 148.967 126.749 149.373C126.603 149.779 126.53 150.228 126.53 150.72C126.53 151.207 126.603 151.654 126.749 152.06C126.9 152.461 127.125 152.782 127.426 153.023C127.731 153.265 128.114 153.386 128.574 153.386C128.811 153.386 129.028 153.354 129.224 153.29C129.42 153.222 129.595 153.128 129.75 153.01C129.905 152.887 130.035 152.741 130.14 152.572C130.245 152.399 130.32 152.21 130.365 152.005L131.787 152.347C131.696 152.707 131.553 153.03 131.357 153.317C131.161 153.6 130.921 153.841 130.639 154.042C130.361 154.243 130.046 154.395 129.696 154.5C129.345 154.605 128.969 154.657 128.568 154.657ZM139.179 154.5H137.717V148.108H136.131C135.534 148.108 135.101 148.215 134.832 148.43C134.568 148.644 134.435 148.947 134.435 149.339C134.435 149.726 134.568 150.025 134.832 150.234C135.101 150.444 135.531 150.549 136.124 150.549H138.339V151.725H135.994C134.982 151.725 134.219 151.506 133.704 151.068C133.193 150.631 132.938 150.052 132.938 149.332C132.938 148.598 133.191 148.004 133.697 147.548C134.207 147.088 134.969 146.857 135.98 146.857H139.179V154.5ZM134.299 154.5H132.61L134.75 151.027H136.397L134.299 154.5ZM147.955 154.657C147.235 154.657 146.608 154.493 146.075 154.165C145.542 153.837 145.127 153.377 144.831 152.784C144.535 152.192 144.387 151.504 144.387 150.72C144.387 149.927 144.535 149.234 144.831 148.642C145.127 148.045 145.542 147.582 146.075 147.254C146.608 146.926 147.235 146.762 147.955 146.762C148.352 146.762 148.723 146.814 149.069 146.919C149.416 147.019 149.728 147.167 150.006 147.363C150.288 147.555 150.525 147.792 150.717 148.074C150.913 148.352 151.059 148.667 151.154 149.018L149.726 149.359C149.675 149.163 149.598 148.986 149.493 148.826C149.388 148.662 149.261 148.521 149.11 148.402C148.965 148.284 148.794 148.193 148.598 148.129C148.406 148.065 148.194 148.033 147.962 148.033C147.502 148.033 147.119 148.156 146.813 148.402C146.513 148.644 146.287 148.967 146.137 149.373C145.991 149.779 145.918 150.228 145.918 150.72C145.918 151.207 145.991 151.654 146.137 152.06C146.287 152.461 146.513 152.782 146.813 153.023C147.119 153.265 147.502 153.386 147.962 153.386C148.199 153.386 148.415 153.354 148.611 153.29C148.807 153.222 148.983 153.128 149.138 153.01C149.293 152.887 149.423 152.741 149.527 152.572C149.632 152.399 149.707 152.21 149.753 152.005L151.175 152.347C151.084 152.707 150.94 153.03 150.744 153.317C150.548 153.6 150.309 153.841 150.026 154.042C149.748 154.243 149.434 154.395 149.083 154.5C148.732 154.605 148.356 154.657 147.955 154.657ZM159.568 154.657C158.848 154.657 158.221 154.493 157.688 154.165C157.154 153.837 156.74 153.377 156.444 152.784C156.147 152.192 155.999 151.504 155.999 150.72C155.999 149.927 156.147 149.234 156.444 148.642C156.74 148.045 157.154 147.582 157.688 147.254C158.221 146.926 158.848 146.762 159.568 146.762C159.964 146.762 160.335 146.814 160.682 146.919C161.028 147.019 161.34 147.167 161.618 147.363C161.901 147.555 162.138 147.792 162.329 148.074C162.525 148.352 162.671 148.667 162.767 149.018L161.338 149.359C161.288 149.163 161.21 148.986 161.106 148.826C161.001 148.662 160.873 148.521 160.723 148.402C160.577 148.284 160.406 148.193 160.21 148.129C160.019 148.065 159.807 148.033 159.574 148.033C159.114 148.033 158.731 148.156 158.426 148.402C158.125 148.644 157.9 148.967 157.749 149.373C157.603 149.779 157.53 150.228 157.53 150.72C157.53 151.207 157.603 151.654 157.749 152.06C157.9 152.461 158.125 152.782 158.426 153.023C158.731 153.265 159.114 153.386 159.574 153.386C159.811 153.386 160.028 153.354 160.224 153.29C160.42 153.222 160.595 153.128 160.75 153.01C160.905 152.887 161.035 152.741 161.14 152.572C161.245 152.399 161.32 152.21 161.365 152.005L162.787 152.347C162.696 152.707 162.553 153.03 162.357 153.317C162.161 153.6 161.921 153.841 161.639 154.042C161.361 154.243 161.046 154.395 160.696 154.5C160.345 154.605 159.969 154.657 159.568 154.657ZM167.548 154.657C166.832 154.657 166.206 154.493 165.668 154.165C165.135 153.837 164.72 153.377 164.424 152.784C164.127 152.192 163.979 151.504 163.979 150.72C163.979 149.927 164.127 149.234 164.424 148.642C164.72 148.045 165.135 147.582 165.668 147.254C166.206 146.926 166.832 146.762 167.548 146.762C168.268 146.762 168.894 146.926 169.428 147.254C169.965 147.582 170.382 148.045 170.679 148.642C170.975 149.234 171.123 149.927 171.123 150.72C171.123 151.504 170.975 152.192 170.679 152.784C170.382 153.377 169.965 153.837 169.428 154.165C168.894 154.493 168.268 154.657 167.548 154.657ZM167.548 153.386C168.012 153.386 168.395 153.265 168.696 153.023C169.001 152.777 169.227 152.454 169.373 152.053C169.523 151.647 169.598 151.203 169.598 150.72C169.598 150.232 169.523 149.785 169.373 149.38C169.227 148.97 169.001 148.644 168.696 148.402C168.395 148.156 168.012 148.033 167.548 148.033C167.087 148.033 166.707 148.156 166.406 148.402C166.105 148.644 165.88 148.967 165.729 149.373C165.583 149.779 165.511 150.228 165.511 150.72C165.511 151.203 165.583 151.647 165.729 152.053C165.88 152.454 166.105 152.777 166.406 153.023C166.707 153.265 167.087 153.386 167.548 153.386ZM179.021 146.857V154.5H177.517V148.156H174.208V154.5H172.698V146.857H179.021ZM180.951 157.357V146.857H182.414V148.102H182.537C182.628 147.942 182.754 147.757 182.913 147.548C183.077 147.338 183.303 147.156 183.59 147.001C183.882 146.841 184.267 146.762 184.745 146.762C185.356 146.762 185.9 146.917 186.379 147.227C186.862 147.536 187.243 147.985 187.521 148.573C187.799 149.161 187.938 149.87 187.938 150.699C187.938 151.52 187.801 152.226 187.527 152.818C187.254 153.406 186.876 153.86 186.393 154.179C185.914 154.493 185.365 154.65 184.745 154.65C184.285 154.65 183.907 154.573 183.61 154.418C183.319 154.258 183.089 154.074 182.92 153.864C182.756 153.655 182.628 153.468 182.537 153.304H182.455V157.357H180.951ZM184.41 153.372C184.848 153.372 185.215 153.254 185.511 153.017C185.807 152.78 186.028 152.458 186.174 152.053C186.324 151.647 186.399 151.191 186.399 150.686C186.399 150.184 186.324 149.735 186.174 149.339C186.028 148.938 185.807 148.621 185.511 148.389C185.219 148.156 184.852 148.04 184.41 148.04C183.982 148.04 183.619 148.152 183.323 148.375C183.027 148.594 182.804 148.901 182.653 149.298C182.503 149.69 182.428 150.152 182.428 150.686C182.428 151.214 182.503 151.681 182.653 152.087C182.808 152.488 183.034 152.802 183.33 153.03C183.626 153.258 183.986 153.372 184.41 153.372ZM192.718 154.657C192.003 154.657 191.376 154.493 190.838 154.165C190.305 153.837 189.891 153.377 189.594 152.784C189.298 152.192 189.15 151.504 189.15 150.72C189.15 149.927 189.298 149.234 189.594 148.642C189.891 148.045 190.305 147.582 190.838 147.254C191.376 146.926 192.003 146.762 192.718 146.762C193.438 146.762 194.065 146.926 194.598 147.254C195.136 147.582 195.553 148.045 195.849 148.642C196.145 149.234 196.294 149.927 196.294 150.72C196.294 151.504 196.145 152.192 195.849 152.784C195.553 153.377 195.136 153.837 194.598 154.165C194.065 154.493 193.438 154.657 192.718 154.657ZM192.718 153.386C193.183 153.386 193.566 153.265 193.867 153.023C194.172 152.777 194.398 152.454 194.544 152.053C194.694 151.647 194.769 151.203 194.769 150.72C194.769 150.232 194.694 149.785 194.544 149.38C194.398 148.97 194.172 148.644 193.867 148.402C193.566 148.156 193.183 148.033 192.718 148.033C192.258 148.033 191.878 148.156 191.577 148.402C191.276 148.644 191.05 148.967 190.9 149.373C190.754 149.779 190.681 150.228 190.681 150.72C190.681 151.203 190.754 151.647 190.9 152.053C191.05 152.454 191.276 152.777 191.577 153.023C191.878 153.265 192.258 153.386 192.718 153.386ZM199.475 154.5V148.129H196.993V146.857H203.446V148.129H200.979V154.5H199.475ZM211.071 154.5H209.567V149.325H209.485L206.033 154.5H204.673V146.857H206.177V152.039H206.252L209.711 146.857H211.071V154.5ZM212.995 154.5V146.857H216.16C217.021 146.857 217.704 147.042 218.21 147.411C218.721 147.776 218.976 148.272 218.976 148.901C218.976 149.339 218.835 149.69 218.552 149.954C218.274 150.218 217.894 150.398 217.411 150.494C217.757 150.531 218.074 150.633 218.361 150.802C218.648 150.966 218.878 151.187 219.051 151.465C219.224 151.738 219.311 152.064 219.311 152.442C219.311 152.843 219.204 153.201 218.99 153.516C218.78 153.826 218.477 154.067 218.08 154.24C217.684 154.413 217.205 154.5 216.645 154.5H212.995ZM214.41 153.235H216.645C217.01 153.235 217.294 153.149 217.499 152.976C217.704 152.802 217.807 152.568 217.807 152.271C217.807 151.916 217.704 151.64 217.499 151.444C217.294 151.244 217.01 151.144 216.645 151.144H214.41V153.235ZM214.41 150.043H216.173C216.593 150.043 216.918 149.956 217.151 149.783C217.388 149.61 217.506 149.373 217.506 149.072C217.506 148.781 217.385 148.553 217.144 148.389C216.907 148.22 216.579 148.136 216.16 148.136H214.41V150.043ZM219.99 154.5V153.201H220.257C220.466 153.201 220.642 153.158 220.783 153.071C220.929 152.985 221.048 152.837 221.139 152.627C221.234 152.417 221.307 152.123 221.357 151.745C221.408 151.367 221.446 150.886 221.474 150.303L221.604 146.857H227.031V154.5H225.521V148.156H223.039L222.93 150.699C222.893 151.565 222.788 152.281 222.615 152.846C222.447 153.406 222.189 153.823 221.843 154.097C221.501 154.366 221.052 154.5 220.496 154.5H219.99ZM232.25 154.657C231.498 154.657 230.848 154.495 230.301 154.172C229.754 153.848 229.333 153.393 229.037 152.805C228.745 152.217 228.599 151.526 228.599 150.733C228.599 149.95 228.743 149.259 229.03 148.662C229.322 148.065 229.732 147.6 230.26 147.268C230.789 146.93 231.409 146.762 232.12 146.762C232.557 146.762 232.979 146.835 233.384 146.98C233.79 147.122 234.155 147.345 234.478 147.65C234.802 147.956 235.057 148.352 235.244 148.84C235.435 149.323 235.531 149.911 235.531 150.604V151.137H229.44V150.016H234.758L234.054 150.385C234.054 149.915 233.981 149.503 233.836 149.147C233.69 148.787 233.473 148.507 233.186 148.307C232.904 148.106 232.548 148.006 232.12 148.006C231.696 148.006 231.334 148.108 231.033 148.313C230.732 148.519 230.502 148.79 230.342 149.127C230.187 149.46 230.11 149.824 230.11 150.221V150.986C230.11 151.51 230.199 151.955 230.377 152.319C230.559 152.679 230.812 152.953 231.135 153.14C231.459 153.322 231.835 153.413 232.263 153.413C232.546 153.413 232.801 153.374 233.029 153.297C233.257 153.215 233.453 153.094 233.617 152.935C233.785 152.771 233.913 152.57 234 152.333L235.415 152.668C235.292 153.06 235.084 153.406 234.793 153.707C234.505 154.008 234.145 154.243 233.712 154.411C233.284 154.575 232.796 154.657 232.25 154.657ZM242.328 149.92V151.226H238.199V149.92H242.328ZM238.589 146.857V154.5H237.085V146.857H238.589ZM243.456 146.857V154.5H241.952V146.857H243.456ZM251.778 154.5H250.274V149.325H250.192L246.74 154.5H245.38V146.857H246.884V152.039H246.959L250.418 146.857H251.778V154.5ZM256.996 154.657C256.245 154.657 255.595 154.495 255.048 154.172C254.501 153.848 254.08 153.393 253.784 152.805C253.492 152.217 253.346 151.526 253.346 150.733C253.346 149.95 253.49 149.259 253.777 148.662C254.068 148.065 254.479 147.6 255.007 147.268C255.536 146.93 256.156 146.762 256.867 146.762C257.304 146.762 257.726 146.835 258.131 146.98C258.537 147.122 258.901 147.345 259.225 147.65C259.549 147.956 259.804 148.352 259.991 148.84C260.182 149.323 260.278 149.911 260.278 150.604V151.137H254.187V150.016H259.505L258.801 150.385C258.801 149.915 258.728 149.503 258.582 149.147C258.437 148.787 258.22 148.507 257.933 148.307C257.65 148.106 257.295 148.006 256.867 148.006C256.443 148.006 256.08 148.108 255.78 148.313C255.479 148.519 255.249 148.79 255.089 149.127C254.934 149.46 254.857 149.824 254.857 150.221V150.986C254.857 151.51 254.946 151.955 255.123 152.319C255.306 152.679 255.559 152.953 255.882 153.14C256.206 153.322 256.582 153.413 257.01 153.413C257.293 153.413 257.548 153.374 257.776 153.297C258.004 153.215 258.2 153.094 258.364 152.935C258.532 152.771 258.66 152.57 258.746 152.333L260.162 152.668C260.038 153.06 259.831 153.406 259.539 153.707C259.252 154.008 258.892 154.243 258.459 154.411C258.031 154.575 257.543 154.657 256.996 154.657ZM261.832 154.5V146.857H264.108L265.619 150.679C265.719 150.938 265.811 151.201 265.893 151.465C265.975 151.729 266.045 151.991 266.104 152.251C266.168 152.506 266.225 152.757 266.275 153.003C266.33 153.249 266.38 153.486 266.426 153.714H266.2C266.241 153.495 266.287 153.265 266.337 153.023C266.392 152.777 266.449 152.524 266.508 152.265C266.572 152.005 266.645 151.743 266.727 151.479C266.809 151.21 266.897 150.943 266.993 150.679L268.49 146.857H270.787V154.5H269.297V150.836C269.297 150.59 269.299 150.33 269.304 150.057C269.308 149.779 269.313 149.494 269.317 149.202C269.322 148.91 269.326 148.617 269.331 148.32C269.34 148.024 269.345 147.732 269.345 147.445H269.481C269.381 147.874 269.279 148.272 269.174 148.642C269.074 149.011 268.962 149.373 268.839 149.729C268.72 150.084 268.584 150.453 268.429 150.836L266.945 154.5H265.653L264.149 150.836C263.999 150.449 263.862 150.077 263.739 149.722C263.616 149.366 263.502 149.004 263.397 148.635C263.293 148.266 263.19 147.869 263.09 147.445H263.254C263.258 147.701 263.263 147.972 263.268 148.259C263.277 148.546 263.284 148.84 263.288 149.141C263.297 149.441 263.302 149.735 263.302 150.022C263.306 150.31 263.309 150.581 263.309 150.836V154.5H261.832Z" fill="#439FF4"/>
<path d="M32.7 184.7V179.24H33.97C34.2166 179.04 34.45 178.787 34.67 178.48C34.89 178.173 35.09 177.78 35.27 177.3C35.4566 176.813 35.6166 176.213 35.75 175.5C35.8833 174.78 35.99 173.91 36.07 172.89L36.58 166.6H46.5899V179.24H48.3299V184.7H45.7499V181.5H35.28V184.7H32.7ZM37.01 179.24H43.9399V168.86H39.0299L38.6899 172.89C38.6099 173.897 38.4899 174.81 38.3299 175.63C38.1766 176.45 37.99 177.163 37.77 177.77C37.55 178.377 37.2966 178.867 37.01 179.24ZM59.9774 181.5H57.4074V174.5H57.3374L52.4874 181.5H50.2174V170.54H52.7874V177.53H52.8574L57.6874 170.54H59.9774V181.5ZM65.6049 181.71C64.8983 181.71 64.2649 181.587 63.7049 181.34C63.1449 181.087 62.7016 180.717 62.3749 180.23C62.0483 179.737 61.885 179.13 61.885 178.41C61.885 177.79 62.0016 177.28 62.2349 176.88C62.4683 176.473 62.7849 176.15 63.1849 175.91C63.5849 175.663 64.0349 175.48 64.5349 175.36C65.0416 175.233 65.5649 175.14 66.1049 175.08C66.7582 175.007 67.2816 174.943 67.6749 174.89C68.0749 174.837 68.3649 174.753 68.5449 174.64C68.7316 174.52 68.8249 174.337 68.8249 174.09V174.02C68.8249 173.68 68.7482 173.387 68.5949 173.14C68.4482 172.893 68.2282 172.703 67.9349 172.57C67.6482 172.437 67.2949 172.37 66.8749 172.37C66.4549 172.37 66.0882 172.437 65.7749 172.57C65.4616 172.697 65.2083 172.87 65.0149 173.09C64.8216 173.31 64.6883 173.553 64.6149 173.82L62.2049 173.5C62.3583 172.827 62.6483 172.26 63.0749 171.8C63.5083 171.333 64.0516 170.98 64.7049 170.74C65.3583 170.5 66.0882 170.38 66.8949 170.38C67.4749 170.38 68.0349 170.45 68.5749 170.59C69.1149 170.723 69.5949 170.94 70.0149 171.24C70.4415 171.54 70.7749 171.927 71.0149 172.4C71.2615 172.873 71.3849 173.447 71.3849 174.12V181.5H68.9049V179.98H68.8249C68.6582 180.293 68.4316 180.583 68.1449 180.85C67.8649 181.11 67.5149 181.32 67.0949 181.48C66.6749 181.633 66.1782 181.71 65.6049 181.71ZM66.2549 179.8C66.7949 179.8 67.2549 179.697 67.6349 179.49C68.0216 179.283 68.3182 179.007 68.5249 178.66C68.7316 178.313 68.8349 177.937 68.8349 177.53V176.27C68.7549 176.33 68.6216 176.387 68.4349 176.44C68.2549 176.493 68.0449 176.543 67.8049 176.59C67.5716 176.637 67.3316 176.68 67.0849 176.72C66.8449 176.753 66.6249 176.783 66.4249 176.81C66.0449 176.857 65.6983 176.943 65.3849 177.07C65.0783 177.19 64.8349 177.357 64.6549 177.57C64.4749 177.777 64.3849 178.047 64.3849 178.38C64.3849 178.687 64.4649 178.947 64.6249 179.16C64.7849 179.367 65.0049 179.527 65.2849 179.64C65.5649 179.747 65.8883 179.8 66.2549 179.8ZM72.7625 181.5V179.36H73.1625C73.4491 179.36 73.6925 179.303 73.8925 179.19C74.0925 179.077 74.2558 178.88 74.3824 178.6C74.5158 178.32 74.6158 177.93 74.6824 177.43C74.7558 176.93 74.8091 176.293 74.8424 175.52L75.0324 170.54H83.3324V181.5H80.7624V172.67H77.4924L77.3324 176.07C77.2791 177.343 77.1124 178.38 76.8324 179.18C76.5591 179.98 76.1624 180.567 75.6424 180.94C75.1224 181.313 74.4658 181.5 73.6725 181.5H72.7625ZM90.6199 181.73C89.5533 181.73 88.6233 181.493 87.8299 181.02C87.0366 180.547 86.4199 179.883 85.9799 179.03C85.54 178.177 85.32 177.187 85.32 176.06C85.32 174.927 85.54 173.933 85.9799 173.08C86.4199 172.22 87.0366 171.553 87.8299 171.08C88.6233 170.607 89.5533 170.37 90.6199 170.37C91.6932 170.37 92.6266 170.607 93.4199 171.08C94.2132 171.553 94.8265 172.22 95.2599 173.08C95.6999 173.933 95.9199 174.927 95.9199 176.06C95.9199 177.187 95.6999 178.177 95.2599 179.03C94.8265 179.883 94.2132 180.547 93.4199 181.02C92.6266 181.493 91.6932 181.73 90.6199 181.73ZM90.6199 179.62C91.1999 179.62 91.6899 179.467 92.0899 179.16C92.4899 178.853 92.7932 178.43 92.9999 177.89C93.2066 177.35 93.3099 176.74 93.3099 176.06C93.3099 175.367 93.2066 174.75 92.9999 174.21C92.7932 173.67 92.4899 173.247 92.0899 172.94C91.6899 172.633 91.1999 172.48 90.6199 172.48C90.0399 172.48 89.5499 172.633 89.1499 172.94C88.7499 173.247 88.4466 173.67 88.2399 174.21C88.0399 174.743 87.9399 175.36 87.9399 176.06C87.9399 176.747 88.0399 177.36 88.2399 177.9C88.4466 178.433 88.7499 178.853 89.1499 179.16C89.5499 179.467 90.0399 179.62 90.6199 179.62ZM105.277 170.54V172.7H100.467V181.5H97.8874V170.54H105.277ZM116.133 180.67V170.62H118.372V180.67H116.133ZM112.233 176.71V174.58H122.272V176.71H112.233ZM139.698 170.54V181.5H137.128V172.7H132.678V181.5H130.098V170.54H139.698ZM142.175 185.68V170.54H144.705V172.26H144.825C144.985 171.953 145.202 171.657 145.475 171.37C145.748 171.083 146.095 170.847 146.515 170.66C146.935 170.473 147.438 170.38 148.025 170.38C148.905 170.38 149.688 170.603 150.375 171.05C151.068 171.497 151.612 172.143 152.005 172.99C152.405 173.837 152.605 174.85 152.605 176.03C152.605 177.21 152.408 178.223 152.015 179.07C151.628 179.917 151.088 180.57 150.395 181.03C149.708 181.483 148.915 181.71 148.015 181.71C147.442 181.71 146.945 181.617 146.525 181.43C146.112 181.237 145.768 180.997 145.495 180.71C145.222 180.417 145.002 180.113 144.835 179.8H144.755V185.68H142.175ZM147.345 179.58C147.905 179.58 148.382 179.433 148.775 179.14C149.168 178.84 149.468 178.423 149.675 177.89C149.882 177.357 149.985 176.737 149.985 176.03C149.985 175.317 149.882 174.697 149.675 174.17C149.468 173.643 149.168 173.233 148.775 172.94C148.388 172.647 147.912 172.5 147.345 172.5C146.785 172.5 146.305 172.647 145.905 172.94C145.505 173.233 145.198 173.643 144.985 174.17C144.778 174.697 144.675 175.317 144.675 176.03C144.675 176.737 144.778 177.357 144.985 177.89C145.198 178.423 145.505 178.84 145.905 179.14C146.312 179.433 146.792 179.58 147.345 179.58ZM164.352 181.5H161.783V174.5H161.713L156.863 181.5H154.593V170.54H157.163V177.53H157.233L162.063 170.54H164.352V181.5ZM170.65 181.65C169.763 181.65 168.993 181.503 168.34 181.21C167.687 180.91 167.18 180.507 166.82 180C166.46 179.493 166.273 178.92 166.26 178.28H168.79C168.803 178.673 168.983 178.993 169.33 179.24C169.677 179.48 170.11 179.6 170.63 179.6C171.177 179.6 171.617 179.467 171.95 179.2C172.29 178.933 172.46 178.597 172.46 178.19C172.46 177.75 172.277 177.397 171.91 177.13C171.55 176.863 171.057 176.73 170.43 176.73H169.6V175.1H170.43C170.97 175.1 171.407 174.977 171.74 174.73C172.08 174.477 172.25 174.133 172.25 173.7C172.25 173.3 172.107 172.977 171.82 172.73C171.533 172.477 171.147 172.35 170.66 172.35C170.187 172.35 169.783 172.467 169.45 172.7C169.117 172.933 168.943 173.25 168.93 173.65H166.49C166.497 173.01 166.68 172.447 167.04 171.96C167.407 171.467 167.903 171.08 168.53 170.8C169.163 170.52 169.883 170.38 170.69 170.38C171.49 170.38 172.19 170.517 172.79 170.79C173.397 171.057 173.867 171.423 174.2 171.89C174.533 172.357 174.7 172.883 174.7 173.47C174.7 174.11 174.493 174.633 174.08 175.04C173.667 175.447 173.14 175.697 172.5 175.79V175.83C173.353 175.937 174 176.227 174.44 176.7C174.887 177.167 175.11 177.737 175.11 178.41C175.11 179.037 174.92 179.593 174.54 180.08C174.16 180.567 173.633 180.95 172.96 181.23C172.293 181.51 171.523 181.65 170.65 181.65ZM184.818 174.79V176.94H178.868V174.79H184.818ZM179.568 170.54V181.5H176.988V170.54H179.568ZM186.708 170.54V181.5H184.138V170.54H186.708ZM192.355 181.71C191.648 181.71 191.015 181.587 190.455 181.34C189.895 181.087 189.452 180.717 189.125 180.23C188.798 179.737 188.635 179.13 188.635 178.41C188.635 177.79 188.752 177.28 188.985 176.88C189.218 176.473 189.535 176.15 189.935 175.91C190.335 175.663 190.785 175.48 191.285 175.36C191.792 175.233 192.315 175.14 192.855 175.08C193.508 175.007 194.032 174.943 194.425 174.89C194.825 174.837 195.115 174.753 195.295 174.64C195.482 174.52 195.575 174.337 195.575 174.09V174.02C195.575 173.68 195.498 173.387 195.345 173.14C195.198 172.893 194.978 172.703 194.685 172.57C194.398 172.437 194.045 172.37 193.625 172.37C193.205 172.37 192.838 172.437 192.525 172.57C192.212 172.697 191.958 172.87 191.765 173.09C191.572 173.31 191.438 173.553 191.365 173.82L188.955 173.5C189.108 172.827 189.398 172.26 189.825 171.8C190.258 171.333 190.802 170.98 191.455 170.74C192.108 170.5 192.838 170.38 193.645 170.38C194.225 170.38 194.785 170.45 195.325 170.59C195.865 170.723 196.345 170.94 196.765 171.24C197.192 171.54 197.525 171.927 197.765 172.4C198.012 172.873 198.135 173.447 198.135 174.12V181.5H195.655V179.98H195.575C195.408 180.293 195.182 180.583 194.895 180.85C194.615 181.11 194.265 181.32 193.845 181.48C193.425 181.633 192.928 181.71 192.355 181.71ZM193.005 179.8C193.545 179.8 194.005 179.697 194.385 179.49C194.772 179.283 195.068 179.007 195.275 178.66C195.482 178.313 195.585 177.937 195.585 177.53V176.27C195.505 176.33 195.372 176.387 195.185 176.44C195.005 176.493 194.795 176.543 194.555 176.59C194.322 176.637 194.082 176.68 193.835 176.72C193.595 176.753 193.375 176.783 193.175 176.81C192.795 176.857 192.448 176.943 192.135 177.07C191.828 177.19 191.585 177.357 191.405 177.57C191.225 177.777 191.135 178.047 191.135 178.38C191.135 178.687 191.215 178.947 191.375 179.16C191.535 179.367 191.755 179.527 192.035 179.64C192.315 179.747 192.638 179.8 193.005 179.8ZM208.433 174.79V176.94H202.483V174.79H208.433ZM203.183 170.54V181.5H200.603V170.54H203.183ZM210.323 170.54V181.5H207.753V170.54H210.323ZM222.56 181.5H219.99V174.5H219.92L215.07 181.5H212.8V170.54H215.37V177.53H215.44L220.27 170.54H222.56V181.5ZM229.858 181.73C228.764 181.73 227.818 181.497 227.018 181.03C226.224 180.557 225.611 179.897 225.178 179.05C224.744 178.197 224.528 177.203 224.528 176.07C224.528 174.95 224.744 173.963 225.178 173.11C225.611 172.25 226.214 171.58 226.988 171.1C227.768 170.613 228.678 170.37 229.718 170.37C230.431 170.37 231.094 170.49 231.708 170.73C232.328 170.963 232.868 171.317 233.328 171.79C233.794 172.257 234.158 172.84 234.418 173.54C234.684 174.233 234.818 175.04 234.818 175.96V176.72H225.678V174.97H233.528L232.348 175.47C232.348 174.85 232.244 174.31 232.038 173.85C231.838 173.39 231.544 173.033 231.158 172.78C230.771 172.52 230.298 172.39 229.738 172.39C229.178 172.39 228.698 172.52 228.298 172.78C227.904 173.04 227.601 173.393 227.388 173.84C227.181 174.28 227.078 174.783 227.078 175.35V176.53C227.078 177.197 227.191 177.77 227.418 178.25C227.651 178.723 227.978 179.087 228.398 179.34C228.824 179.587 229.328 179.71 229.908 179.71C230.301 179.71 230.654 179.653 230.968 179.54C231.288 179.427 231.558 179.26 231.778 179.04C231.998 178.813 232.164 178.547 232.278 178.24L234.658 178.55C234.498 179.183 234.194 179.74 233.748 180.22C233.308 180.693 232.758 181.063 232.098 181.33C231.438 181.597 230.691 181.73 229.858 181.73ZM246.433 178.28C244.906 178.28 243.723 177.937 242.883 177.25C242.049 176.563 241.633 175.527 241.633 174.14V170.54H244.213V174.11C244.213 174.83 244.406 175.347 244.793 175.66C245.179 175.973 245.726 176.13 246.433 176.13C247.019 176.13 247.576 176.073 248.103 175.96C248.636 175.84 249.193 175.677 249.773 175.47V177.63C249.479 177.743 249.149 177.85 248.783 177.95C248.423 178.05 248.043 178.13 247.643 178.19C247.243 178.25 246.839 178.28 246.433 178.28ZM248.433 181.5V170.54H251.003V181.5H248.433ZM253.09 185.56L253.49 183.52L254.13 183.57C254.463 183.637 254.757 183.64 255.01 183.58C255.263 183.527 255.477 183.397 255.65 183.19C255.823 182.983 255.957 182.697 256.05 182.33L256.29 181.51L252.12 170.54H254.86L256.87 176.42C257.097 177.087 257.29 177.753 257.45 178.42C257.617 179.087 257.79 179.763 257.97 180.45H257.28C257.46 179.763 257.64 179.087 257.82 178.42C258 177.747 258.203 177.08 258.43 176.42L260.48 170.54H263.19L258.42 183.04C258.2 183.627 257.927 184.12 257.6 184.52C257.273 184.92 256.88 185.22 256.42 185.42C255.96 185.627 255.42 185.73 254.8 185.73C254.467 185.73 254.15 185.713 253.85 185.68C253.557 185.647 253.304 185.607 253.09 185.56ZM264.688 181.5V170.54H269.338C270.651 170.54 271.691 170.793 272.458 171.3C273.224 171.807 273.608 172.53 273.608 173.47C273.608 174.083 273.408 174.587 273.008 174.98C272.608 175.373 272.041 175.633 271.308 175.76C271.868 175.813 272.358 175.96 272.778 176.2C273.198 176.433 273.521 176.747 273.748 177.14C273.981 177.527 274.098 177.973 274.098 178.48C274.098 179.093 273.941 179.627 273.628 180.08C273.314 180.533 272.858 180.883 272.258 181.13C271.658 181.377 270.924 181.5 270.058 181.5H264.688ZM267.108 179.45H270.028C270.521 179.45 270.904 179.34 271.178 179.12C271.451 178.893 271.588 178.58 271.588 178.18C271.588 177.727 271.451 177.373 271.178 177.12C270.904 176.867 270.521 176.74 270.028 176.74H267.108V179.45ZM267.108 175.08H269.398C269.944 175.08 270.368 174.967 270.668 174.74C270.974 174.513 271.128 174.203 271.128 173.81C271.128 173.423 270.968 173.123 270.648 172.91C270.334 172.697 269.898 172.59 269.338 172.59H267.108V175.08ZM280.835 181.73C279.768 181.73 278.838 181.493 278.045 181.02C277.258 180.54 276.645 179.877 276.205 179.03C275.772 178.177 275.555 177.187 275.555 176.06C275.555 174.927 275.772 173.933 276.205 173.08C276.645 172.227 277.258 171.563 278.045 171.09C278.838 170.61 279.768 170.37 280.835 170.37C281.475 170.37 282.065 170.457 282.605 170.63C283.152 170.803 283.635 171.053 284.055 171.38C284.475 171.7 284.822 172.087 285.095 172.54C285.368 172.993 285.552 173.5 285.645 174.06L283.195 174.39C283.135 174.097 283.038 173.833 282.905 173.6C282.778 173.367 282.615 173.167 282.415 173C282.215 172.833 281.985 172.703 281.725 172.61C281.465 172.517 281.175 172.47 280.855 172.47C280.275 172.47 279.785 172.627 279.385 172.94C278.985 173.247 278.682 173.67 278.475 174.21C278.275 174.743 278.175 175.36 278.175 176.06C278.175 176.747 278.275 177.36 278.475 177.9C278.682 178.433 278.985 178.853 279.385 179.16C279.785 179.467 280.275 179.62 280.855 179.62C281.182 179.62 281.475 179.577 281.735 179.49C281.995 179.397 282.222 179.263 282.415 179.09C282.615 178.917 282.782 178.71 282.915 178.47C283.048 178.223 283.148 177.953 283.215 177.66L285.665 177.98C285.572 178.547 285.388 179.06 285.115 179.52C284.842 179.98 284.495 180.377 284.075 180.71C283.655 181.037 283.168 181.29 282.615 181.47C282.068 181.643 281.475 181.73 280.835 181.73ZM290.093 181.5V172.66H286.513V170.54H296.233V172.66H292.663V181.5H290.093ZM297.76 181.5V170.54H302.41C303.723 170.54 304.763 170.793 305.53 171.3C306.297 171.807 306.68 172.53 306.68 173.47C306.68 174.083 306.48 174.587 306.08 174.98C305.68 175.373 305.113 175.633 304.38 175.76C304.94 175.813 305.43 175.96 305.85 176.2C306.27 176.433 306.593 176.747 306.82 177.14C307.053 177.527 307.17 177.973 307.17 178.48C307.17 179.093 307.013 179.627 306.7 180.08C306.387 180.533 305.93 180.883 305.33 181.13C304.73 181.377 303.997 181.5 303.13 181.5H297.76ZM300.18 179.45H303.1C303.593 179.45 303.977 179.34 304.25 179.12C304.523 178.893 304.66 178.58 304.66 178.18C304.66 177.727 304.523 177.373 304.25 177.12C303.977 176.867 303.593 176.74 303.1 176.74H300.18V179.45ZM300.18 175.08H302.47C303.017 175.08 303.44 174.967 303.74 174.74C304.047 174.513 304.2 174.203 304.2 173.81C304.2 173.423 304.04 173.123 303.72 172.91C303.407 172.697 302.97 172.59 302.41 172.59H300.18V175.08ZM318.385 180.67V170.62H320.625V180.67H318.385ZM314.485 176.71V174.58H324.525V176.71H314.485ZM42.8799 192.54V203.5H40.3099V194.7H35.86V203.5H33.28V192.54H42.8799ZM45.3575 207.68V192.54H47.8875V194.26H48.0075C48.1675 193.953 48.3841 193.657 48.6575 193.37C48.9308 193.083 49.2775 192.847 49.6975 192.66C50.1175 192.473 50.6208 192.38 51.2074 192.38C52.0874 192.38 52.8708 192.603 53.5574 193.05C54.2507 193.497 54.7941 194.143 55.1874 194.99C55.5874 195.837 55.7874 196.85 55.7874 198.03C55.7874 199.21 55.5907 200.223 55.1974 201.07C54.8107 201.917 54.2707 202.57 53.5774 203.03C52.8908 203.483 52.0974 203.71 51.1974 203.71C50.6241 203.71 50.1275 203.617 49.7075 203.43C49.2941 203.237 48.9508 202.997 48.6775 202.71C48.4041 202.417 48.1841 202.113 48.0175 201.8H47.9375V207.68H45.3575ZM50.5274 201.58C51.0874 201.58 51.5641 201.433 51.9574 201.14C52.3508 200.84 52.6508 200.423 52.8574 199.89C53.0641 199.357 53.1674 198.737 53.1674 198.03C53.1674 197.317 53.0641 196.697 52.8574 196.17C52.6508 195.643 52.3508 195.233 51.9574 194.94C51.5708 194.647 51.0941 194.5 50.5274 194.5C49.9675 194.5 49.4875 194.647 49.0875 194.94C48.6875 195.233 48.3808 195.643 48.1675 196.17C47.9608 196.697 47.8575 197.317 47.8575 198.03C47.8575 198.737 47.9608 199.357 48.1675 199.89C48.3808 200.423 48.6875 200.84 49.0875 201.14C49.4941 201.433 49.9741 201.58 50.5274 201.58ZM62.5849 203.73C61.5183 203.73 60.5883 203.493 59.795 203.02C59.0016 202.547 58.385 201.883 57.945 201.03C57.505 200.177 57.285 199.187 57.285 198.06C57.285 196.927 57.505 195.933 57.945 195.08C58.385 194.22 59.0016 193.553 59.795 193.08C60.5883 192.607 61.5183 192.37 62.5849 192.37C63.6583 192.37 64.5916 192.607 65.3849 193.08C66.1782 193.553 66.7916 194.22 67.2249 195.08C67.6649 195.933 67.8849 196.927 67.8849 198.06C67.8849 199.187 67.6649 200.177 67.2249 201.03C66.7916 201.883 66.1782 202.547 65.3849 203.02C64.5916 203.493 63.6583 203.73 62.5849 203.73ZM62.5849 201.62C63.1649 201.62 63.6549 201.467 64.0549 201.16C64.4549 200.853 64.7583 200.43 64.9649 199.89C65.1716 199.35 65.2749 198.74 65.2749 198.06C65.2749 197.367 65.1716 196.75 64.9649 196.21C64.7583 195.67 64.4549 195.247 64.0549 194.94C63.6549 194.633 63.1649 194.48 62.5849 194.48C62.005 194.48 61.515 194.633 61.115 194.94C60.715 195.247 60.4116 195.67 60.205 196.21C60.005 196.743 59.905 197.36 59.905 198.06C59.905 198.747 60.005 199.36 60.205 199.9C60.4116 200.433 60.715 200.853 61.115 201.16C61.515 201.467 62.005 201.62 62.5849 201.62ZM68.9025 206.75V201.34H69.7925C70.0258 201.153 70.2225 200.913 70.3825 200.62C70.5491 200.32 70.6825 199.967 70.7825 199.56C70.8891 199.147 70.9758 198.683 71.0425 198.17C71.1158 197.65 71.1791 197.08 71.2325 196.46L71.5625 192.54H79.5824V201.34H81.2924V206.75H78.8124V203.5H71.4425V206.75H68.9025ZM72.4625 201.34H77.1224V194.67H73.7825L73.6225 196.46C73.5358 197.593 73.4091 198.567 73.2425 199.38C73.0758 200.187 72.8158 200.84 72.4625 201.34ZM87.2799 203.73C86.2133 203.73 85.2833 203.493 84.49 203.02C83.6966 202.547 83.08 201.883 82.64 201.03C82.2 200.177 81.98 199.187 81.98 198.06C81.98 196.927 82.2 195.933 82.64 195.08C83.08 194.22 83.6966 193.553 84.49 193.08C85.2833 192.607 86.2133 192.37 87.2799 192.37C88.3533 192.37 89.2866 192.607 90.0799 193.08C90.8732 193.553 91.4866 194.22 91.9199 195.08C92.3599 195.933 92.5799 196.927 92.5799 198.06C92.5799 199.187 92.3599 200.177 91.9199 201.03C91.4866 201.883 90.8732 202.547 90.0799 203.02C89.2866 203.493 88.3533 203.73 87.2799 203.73ZM87.2799 201.62C87.8599 201.62 88.3499 201.467 88.7499 201.16C89.1499 200.853 89.4533 200.43 89.6599 199.89C89.8666 199.35 89.9699 198.74 89.9699 198.06C89.9699 197.367 89.8666 196.75 89.6599 196.21C89.4533 195.67 89.1499 195.247 88.7499 194.94C88.3499 194.633 87.8599 194.48 87.2799 194.48C86.6999 194.48 86.2099 194.633 85.81 194.94C85.41 195.247 85.1066 195.67 84.9 196.21C84.7 196.743 84.6 197.36 84.6 198.06C84.6 198.747 84.7 199.36 84.9 199.9C85.1066 200.433 85.41 200.853 85.81 201.16C86.2099 201.467 86.6999 201.62 87.2799 201.62ZM93.4575 203.5V201.36H93.8575C94.1441 201.36 94.3875 201.303 94.5875 201.19C94.7875 201.077 94.9508 200.88 95.0775 200.6C95.2108 200.32 95.3108 199.93 95.3775 199.43C95.4508 198.93 95.5041 198.293 95.5375 197.52L95.7275 192.54H104.027V203.5H101.457V194.67H98.1874L98.0275 198.07C97.9741 199.343 97.8075 200.38 97.5275 201.18C97.2541 201.98 96.8575 202.567 96.3375 202.94C95.8175 203.313 95.1608 203.5 94.3675 203.5H93.4575ZM105.605 203.5L109.755 197.87L105.645 192.54H108.615L111.855 196.98H112.475V192.54H115.055V196.98H115.665L118.885 192.54H121.875L117.775 197.87L121.905 203.5H118.865L115.645 199.1H115.055V203.5H112.475V199.1H111.885L108.655 203.5H105.605ZM133.222 203.5H130.652V196.5H130.582L125.732 203.5H123.462V192.54H126.032V199.53H126.102L130.932 192.54H133.222V203.5ZM138.17 203.5V194.66H134.59V192.54H144.31V194.66H140.74V203.5H138.17ZM147.637 196.13H150.907C151.821 196.13 152.604 196.287 153.257 196.6C153.911 196.907 154.411 197.333 154.757 197.88C155.111 198.427 155.287 199.067 155.287 199.8C155.287 200.527 155.111 201.17 154.757 201.73C154.411 202.283 153.911 202.717 153.257 203.03C152.604 203.343 151.821 203.5 150.907 203.5H145.837V192.54H148.417V201.37H150.877C151.451 201.37 151.907 201.23 152.247 200.95C152.594 200.67 152.767 200.297 152.767 199.83C152.767 199.35 152.594 198.97 152.247 198.69C151.907 198.403 151.451 198.26 150.877 198.26H147.637V196.13ZM161.203 206.75V201.34H162.093C162.326 201.153 162.523 200.913 162.683 200.62C162.849 200.32 162.983 199.967 163.083 199.56C163.189 199.147 163.276 198.683 163.343 198.17C163.416 197.65 163.479 197.08 163.533 196.46L163.863 192.54H171.882V201.34H173.592V206.75H171.112V203.5H163.743V206.75H161.203ZM164.762 201.34H169.422V194.67H166.082L165.922 196.46C165.836 197.593 165.709 198.567 165.542 199.38C165.376 200.187 165.116 200.84 164.762 201.34ZM179.61 203.73C178.517 203.73 177.57 203.497 176.77 203.03C175.977 202.557 175.363 201.897 174.93 201.05C174.497 200.197 174.28 199.203 174.28 198.07C174.28 196.95 174.497 195.963 174.93 195.11C175.363 194.25 175.967 193.58 176.74 193.1C177.52 192.613 178.43 192.37 179.47 192.37C180.183 192.37 180.847 192.49 181.46 192.73C182.08 192.963 182.62 193.317 183.08 193.79C183.547 194.257 183.91 194.84 184.17 195.54C184.437 196.233 184.57 197.04 184.57 197.96V198.72H175.43V196.97H183.28L182.1 197.47C182.1 196.85 181.997 196.31 181.79 195.85C181.59 195.39 181.297 195.033 180.91 194.78C180.523 194.52 180.05 194.39 179.49 194.39C178.93 194.39 178.45 194.52 178.05 194.78C177.657 195.04 177.353 195.393 177.14 195.84C176.933 196.28 176.83 196.783 176.83 197.35V198.53C176.83 199.197 176.943 199.77 177.17 200.25C177.403 200.723 177.73 201.087 178.15 201.34C178.577 201.587 179.08 201.71 179.66 201.71C180.053 201.71 180.407 201.653 180.72 201.54C181.04 201.427 181.31 201.26 181.53 201.04C181.75 200.813 181.917 200.547 182.03 200.24L184.41 200.55C184.25 201.183 183.947 201.74 183.5 202.22C183.06 202.693 182.51 203.063 181.85 203.33C181.19 203.597 180.443 203.73 179.61 203.73ZM185.418 203.5V201.36H185.818C186.104 201.36 186.348 201.303 186.548 201.19C186.748 201.077 186.911 200.88 187.038 200.6C187.171 200.32 187.271 199.93 187.338 199.43C187.411 198.93 187.464 198.293 187.498 197.52L187.688 192.54H195.987V203.5H193.417V194.67H190.147L189.987 198.07C189.934 199.343 189.767 200.38 189.487 201.18C189.214 201.98 188.817 202.567 188.297 202.94C187.778 203.313 187.121 203.5 186.328 203.5H185.418ZM201.635 203.71C200.928 203.71 200.295 203.587 199.735 203.34C199.175 203.087 198.732 202.717 198.405 202.23C198.078 201.737 197.915 201.13 197.915 200.41C197.915 199.79 198.032 199.28 198.265 198.88C198.498 198.473 198.815 198.15 199.215 197.91C199.615 197.663 200.065 197.48 200.565 197.36C201.072 197.233 201.595 197.14 202.135 197.08C202.788 197.007 203.312 196.943 203.705 196.89C204.105 196.837 204.395 196.753 204.575 196.64C204.762 196.52 204.855 196.337 204.855 196.09V196.02C204.855 195.68 204.778 195.387 204.625 195.14C204.478 194.893 204.258 194.703 203.965 194.57C203.678 194.437 203.325 194.37 202.905 194.37C202.485 194.37 202.118 194.437 201.805 194.57C201.492 194.697 201.238 194.87 201.045 195.09C200.852 195.31 200.718 195.553 200.645 195.82L198.235 195.5C198.388 194.827 198.678 194.26 199.105 193.8C199.538 193.333 200.082 192.98 200.735 192.74C201.388 192.5 202.118 192.38 202.925 192.38C203.505 192.38 204.065 192.45 204.605 192.59C205.145 192.723 205.625 192.94 206.045 193.24C206.472 193.54 206.805 193.927 207.045 194.4C207.292 194.873 207.415 195.447 207.415 196.12V203.5H204.935V201.98H204.855C204.688 202.293 204.462 202.583 204.175 202.85C203.895 203.11 203.545 203.32 203.125 203.48C202.705 203.633 202.208 203.71 201.635 203.71ZM202.285 201.8C202.825 201.8 203.285 201.697 203.665 201.49C204.052 201.283 204.348 201.007 204.555 200.66C204.762 200.313 204.865 199.937 204.865 199.53V198.27C204.785 198.33 204.652 198.387 204.465 198.44C204.285 198.493 204.075 198.543 203.835 198.59C203.602 198.637 203.362 198.68 203.115 198.72C202.875 198.753 202.655 198.783 202.455 198.81C202.075 198.857 201.728 198.943 201.415 199.07C201.108 199.19 200.865 199.357 200.685 199.57C200.505 199.777 200.415 200.047 200.415 200.38C200.415 200.687 200.495 200.947 200.655 201.16C200.815 201.367 201.035 201.527 201.315 201.64C201.595 201.747 201.918 201.8 202.285 201.8ZM212.373 203.5V194.66H208.793V192.54H218.512V194.66H214.942V203.5H212.373ZM221.84 196.13H225.11C226.023 196.13 226.807 196.287 227.46 196.6C228.113 196.907 228.613 197.333 228.96 197.88C229.313 198.427 229.49 199.067 229.49 199.8C229.49 200.527 229.313 201.17 228.96 201.73C228.613 202.283 228.113 202.717 227.46 203.03C226.807 203.343 226.023 203.5 225.11 203.5H220.04V192.54H222.62V201.37H225.08C225.653 201.37 226.11 201.23 226.45 200.95C226.797 200.67 226.97 200.297 226.97 199.83C226.97 199.35 226.797 198.97 226.45 198.69C226.11 198.403 225.653 198.26 225.08 198.26H221.84V196.13ZM238.845 203.5V194.66H235.265V192.54H244.985V194.66H241.415V203.5H238.845ZM250.823 203.73C249.756 203.73 248.826 203.493 248.033 203.02C247.239 202.547 246.623 201.883 246.183 201.03C245.743 200.177 245.523 199.187 245.523 198.06C245.523 196.927 245.743 195.933 246.183 195.08C246.623 194.22 247.239 193.553 248.033 193.08C248.826 192.607 249.756 192.37 250.823 192.37C251.896 192.37 252.829 192.607 253.623 193.08C254.416 193.553 255.029 194.22 255.463 195.08C255.903 195.933 256.123 196.927 256.123 198.06C256.123 199.187 255.903 200.177 255.463 201.03C255.029 201.883 254.416 202.547 253.623 203.02C252.829 203.493 251.896 203.73 250.823 203.73ZM250.823 201.62C251.403 201.62 251.893 201.467 252.293 201.16C252.693 200.853 252.996 200.43 253.203 199.89C253.409 199.35 253.513 198.74 253.513 198.06C253.513 197.367 253.409 196.75 253.203 196.21C252.996 195.67 252.693 195.247 252.293 194.94C251.893 194.633 251.403 194.48 250.823 194.48C250.243 194.48 249.753 194.633 249.353 194.94C248.953 195.247 248.649 195.67 248.443 196.21C248.243 196.743 248.143 197.36 248.143 198.06C248.143 198.747 248.243 199.36 248.443 199.9C248.649 200.433 248.953 200.853 249.353 201.16C249.753 201.467 250.243 201.62 250.823 201.62ZM257.77 207.03L258.62 201.26H261.24L259.58 207.03H257.77ZM273.165 200.28C271.639 200.28 270.455 199.937 269.615 199.25C268.782 198.563 268.365 197.527 268.365 196.14V192.54H270.945V196.11C270.945 196.83 271.139 197.347 271.525 197.66C271.912 197.973 272.459 198.13 273.165 198.13C273.752 198.13 274.309 198.073 274.835 197.96C275.369 197.84 275.925 197.677 276.505 197.47V199.63C276.212 199.743 275.882 199.85 275.515 199.95C275.155 200.05 274.775 200.13 274.375 200.19C273.975 200.25 273.572 200.28 273.165 200.28ZM275.165 203.5V192.54H277.735V203.5H275.165ZM282.693 203.5V194.66H279.113V192.54H288.833V194.66H285.263V203.5H282.693ZM294.67 203.73C293.604 203.73 292.674 203.493 291.88 203.02C291.087 202.547 290.47 201.883 290.03 201.03C289.59 200.177 289.37 199.187 289.37 198.06C289.37 196.927 289.59 195.933 290.03 195.08C290.47 194.22 291.087 193.553 291.88 193.08C292.674 192.607 293.604 192.37 294.67 192.37C295.744 192.37 296.677 192.607 297.47 193.08C298.264 193.553 298.877 194.22 299.31 195.08C299.75 195.933 299.97 196.927 299.97 198.06C299.97 199.187 299.75 200.177 299.31 201.03C298.877 201.883 298.264 202.547 297.47 203.02C296.677 203.493 295.744 203.73 294.67 203.73ZM294.67 201.62C295.25 201.62 295.74 201.467 296.14 201.16C296.54 200.853 296.844 200.43 297.05 199.89C297.257 199.35 297.36 198.74 297.36 198.06C297.36 197.367 297.257 196.75 297.05 196.21C296.844 195.67 296.54 195.247 296.14 194.94C295.74 194.633 295.25 194.48 294.67 194.48C294.09 194.48 293.6 194.633 293.2 194.94C292.8 195.247 292.497 195.67 292.29 196.21C292.09 196.743 291.99 197.36 291.99 198.06C291.99 198.747 292.09 199.36 292.29 199.9C292.497 200.433 292.8 200.853 293.2 201.16C293.6 201.467 294.09 201.62 294.67 201.62ZM306.815 203.5V192.54H311.465C312.779 192.54 313.819 192.793 314.585 193.3C315.352 193.807 315.735 194.53 315.735 195.47C315.735 196.083 315.535 196.587 315.135 196.98C314.735 197.373 314.169 197.633 313.435 197.76C313.995 197.813 314.485 197.96 314.905 198.2C315.325 198.433 315.649 198.747 315.875 199.14C316.109 199.527 316.225 199.973 316.225 200.48C316.225 201.093 316.069 201.627 315.755 202.08C315.442 202.533 314.985 202.883 314.385 203.13C313.785 203.377 313.052 203.5 312.185 203.5H306.815ZM309.235 201.45H312.155C312.649 201.45 313.032 201.34 313.305 201.12C313.579 200.893 313.715 200.58 313.715 200.18C313.715 199.727 313.579 199.373 313.305 199.12C313.032 198.867 312.649 198.74 312.155 198.74H309.235V201.45ZM309.235 197.08H311.525C312.072 197.08 312.495 196.967 312.795 196.74C313.102 196.513 313.255 196.203 313.255 195.81C313.255 195.423 313.095 195.123 312.775 194.91C312.462 194.697 312.025 194.59 311.465 194.59H309.235V197.08ZM321.343 203.71C320.636 203.71 320.003 203.587 319.443 203.34C318.883 203.087 318.439 202.717 318.113 202.23C317.786 201.737 317.623 201.13 317.623 200.41C317.623 199.79 317.739 199.28 317.973 198.88C318.206 198.473 318.523 198.15 318.923 197.91C319.323 197.663 319.773 197.48 320.273 197.36C320.779 197.233 321.303 197.14 321.843 197.08C322.496 197.007 323.019 196.943 323.413 196.89C323.813 196.837 324.103 196.753 324.283 196.64C324.469 196.52 324.563 196.337 324.563 196.09V196.02C324.563 195.68 324.486 195.387 324.333 195.14C324.186 194.893 323.966 194.703 323.673 194.57C323.386 194.437 323.033 194.37 322.613 194.37C322.193 194.37 321.826 194.437 321.513 194.57C321.199 194.697 320.946 194.87 320.753 195.09C320.559 195.31 320.426 195.553 320.353 195.82L317.943 195.5C318.096 194.827 318.386 194.26 318.813 193.8C319.246 193.333 319.789 192.98 320.443 192.74C321.096 192.5 321.826 192.38 322.633 192.38C323.213 192.38 323.773 192.45 324.313 192.59C324.853 192.723 325.333 192.94 325.753 193.24C326.179 193.54 326.513 193.927 326.753 194.4C326.999 194.873 327.123 195.447 327.123 196.12V203.5H324.643V201.98H324.563C324.396 202.293 324.169 202.583 323.883 202.85C323.603 203.11 323.253 203.32 322.833 203.48C322.413 203.633 321.916 203.71 321.343 203.71ZM321.993 201.8C322.533 201.8 322.993 201.697 323.373 201.49C323.759 201.283 324.056 201.007 324.263 200.66C324.469 200.313 324.573 199.937 324.573 199.53V198.27C324.493 198.33 324.359 198.387 324.173 198.44C323.993 198.493 323.783 198.543 323.543 198.59C323.309 198.637 323.069 198.68 322.823 198.72C322.583 198.753 322.363 198.783 322.163 198.81C321.783 198.857 321.436 198.943 321.123 199.07C320.816 199.19 320.573 199.357 320.393 199.57C320.213 199.777 320.123 200.047 320.123 200.38C320.123 200.687 320.203 200.947 320.363 201.16C320.523 201.367 320.743 201.527 321.023 201.64C321.303 201.747 321.626 201.8 321.993 201.8ZM328.69 203.5L332.84 197.87L328.73 192.54H331.7L334.94 196.98H335.56V192.54H338.14V196.98H338.75L341.97 192.54H344.96L340.86 197.87L344.99 203.5H341.95L338.73 199.1H338.14V203.5H335.56V199.1H334.97L331.74 203.5H328.69ZM354.378 196.79V198.94H348.428V196.79H354.378ZM349.128 192.54V203.5H346.548V192.54H349.128ZM356.268 192.54V203.5H353.698V192.54H356.268ZM363.555 203.73C362.489 203.73 361.559 203.493 360.765 203.02C359.972 202.547 359.355 201.883 358.915 201.03C358.475 200.177 358.255 199.187 358.255 198.06C358.255 196.927 358.475 195.933 358.915 195.08C359.355 194.22 359.972 193.553 360.765 193.08C361.559 192.607 362.489 192.37 363.555 192.37C364.629 192.37 365.562 192.607 366.355 193.08C367.149 193.553 367.762 194.22 368.195 195.08C368.635 195.933 368.855 196.927 368.855 198.06C368.855 199.187 368.635 200.177 368.195 201.03C367.762 201.883 367.149 202.547 366.355 203.02C365.562 203.493 364.629 203.73 363.555 203.73ZM363.555 201.62C364.135 201.62 364.625 201.467 365.025 201.16C365.425 200.853 365.729 200.43 365.935 199.89C366.142 199.35 366.245 198.74 366.245 198.06C366.245 197.367 366.142 196.75 365.935 196.21C365.729 195.67 365.425 195.247 365.025 194.94C364.625 194.633 364.135 194.48 363.555 194.48C362.975 194.48 362.485 194.633 362.085 194.94C361.685 195.247 361.382 195.67 361.175 196.21C360.975 196.743 360.875 197.36 360.875 198.06C360.875 198.747 360.975 199.36 361.175 199.9C361.382 200.433 361.685 200.853 362.085 201.16C362.485 201.467 362.975 201.62 363.555 201.62Z" fill="#1F7BD7"/>
<path fill-rule="evenodd" clip-rule="evenodd" d="M32 34.5C32 33.1193 33.1193 32 34.5 32H45.875C47.2557 32 48.375 33.1193 48.375 34.5V44.75C48.375 46.1307 47.2557 47.25 45.875 47.25H39.625C38.5204 47.25 37.625 48.1454 37.625 49.25V55.1875C37.625 56.7408 36.3658 58 34.8125 58C33.2592 58 32 56.7408 32 55.1875V34.5ZM40.25 43.375C42.3211 43.375 44 41.696 44 39.625C44 37.5539 42.3211 35.875 40.25 35.875C38.1789 35.875 36.5 37.5539 36.5 39.625C36.5 41.696 38.1789 43.375 40.25 43.375Z" fill="#1F7BD7"/>
<path d="M538.683 169.814V180H537.138V171.229H537.069L534.649 172.993V171.428L536.878 169.814H538.683Z" fill="#1F7BD7"/>
<circle cx="537" cy="174" r="91.5" stroke="#1F7BD7"/>
<circle cx="685" cy="174" r="173.5" stroke="#1F7BD7"/>
<path d="M535.968 261.908C536.778 263.28 537.608 264.639 538.455 265.985C538.065 265.991 537.675 265.996 537.284 265.997C536.544 264.813 535.818 263.62 535.106 262.417L535.538 262.162L535.968 261.908ZM527.05 244.679C528.376 247.637 529.782 250.551 531.267 253.419L530.38 253.877C528.887 250.993 527.472 248.062 526.139 245.086L526.594 244.883L527.05 244.679ZM520.126 226.553C521.111 229.645 522.181 232.7 523.332 235.714L522.864 235.892L522.398 236.069C521.24 233.038 520.166 229.965 519.176 226.854L520.126 226.553ZM515.293 207.763C515.923 210.948 516.641 214.103 517.443 217.223L516.958 217.347L516.959 217.348L516.475 217.472H516.474C515.666 214.333 514.948 211.16 514.314 207.956L515.293 207.763ZM512.604 188.554C512.873 191.794 513.233 195.009 513.679 198.196L512.688 198.334C512.24 195.128 511.882 191.895 511.61 188.636L512.105 188.595L512.604 188.554ZM511.567 169.119H511.566L512.067 169.134C512.023 170.75 512 172.372 512 173.999C512 175.626 512.023 177.248 512.067 178.864L511.566 178.878L511.069 178.892C511.024 177.266 511 175.635 511 173.999C511 172.362 511.024 170.731 511.069 169.105L511.567 169.119ZM513.679 149.802C513.233 152.989 512.873 156.204 512.604 159.444L512.105 159.402V159.403L511.61 159.361C511.882 156.103 512.24 152.87 512.688 149.665V149.663L513.679 149.802ZM516.475 130.526L516.959 130.65H516.958L517.443 130.775C516.641 133.895 515.923 137.05 515.293 140.235L514.314 140.041C514.948 136.837 515.666 133.664 516.474 130.525L516.475 130.526ZM522.865 112.105H522.864L523.332 112.284C522.181 115.298 521.111 118.353 520.126 121.445L519.176 121.143C520.166 118.032 521.24 114.959 522.398 111.928L522.865 112.105ZM531.267 94.5791C529.782 97.4466 528.376 100.361 527.05 103.319L526.594 103.114V103.115L526.139 102.911C527.472 99.9356 528.887 97.0043 530.38 94.1201L531.267 94.5791ZM537.283 82C537.674 82.0012 538.065 82.0057 538.455 82.0117C537.608 83.3587 536.779 84.7183 535.968 86.0898L535.107 85.5811L535.106 85.5801C535.818 84.3771 536.543 83.1838 537.283 82Z" fill="#F8F8F8"/>
</g>
<defs>
<clipPath id="clip0_476_3150">
<path d="M0 12C0 5.37259 5.37258 0 12 0H668C674.627 0 680 5.37258 680 12V336C680 342.627 674.627 348 668 348H12C5.3726 348 0 342.627 0 336V12Z" fill="white"/>
</clipPath>
</defs>
</svg>
