<svg width="157" height="28" viewBox="0 0 157 28" fill="none" xmlns="http://www.w3.org/2000/svg">
<path d="M77.6923 21.504C76.023 21.504 74.5698 21.18 73.3326 20.5319C72.0954 19.8642 71.1331 18.9412 70.4458 17.7629C69.7781 16.5846 69.4442 15.2296 69.4442 13.6978C69.4442 12.1464 69.7781 10.7913 70.4458 9.63269C71.1331 8.4544 72.0856 7.54122 73.3031 6.89315C74.5207 6.22545 75.9347 5.8916 77.545 5.8916C79.0964 5.8916 80.4416 6.20581 81.5807 6.83424C82.7197 7.46266 83.6034 8.33657 84.2318 9.45595C84.8603 10.5753 85.1745 11.8911 85.1745 13.4032C85.1745 13.7175 85.1646 14.012 85.145 14.287C85.1254 14.5423 85.0959 14.7877 85.0566 15.0234H72.0365V12.1071H81.4923L80.7264 12.6373C80.7264 11.4198 80.4318 10.5262 79.8427 9.95672C79.2732 9.36758 78.4876 9.073 77.4861 9.073C76.3274 9.073 75.4241 9.46577 74.776 10.2513C74.1476 11.0368 73.8334 12.2151 73.8334 13.7862C73.8334 15.318 74.1476 16.457 74.776 17.2032C75.4241 17.9495 76.3863 18.3226 77.6628 18.3226C78.3698 18.3226 78.9786 18.2048 79.4892 17.9691C79.9998 17.7335 80.3827 17.3505 80.638 16.8203H84.7915C84.3006 18.2735 83.4561 19.4224 82.2582 20.2668C81.0799 21.0916 79.5579 21.504 77.6923 21.504Z" fill="black"/>
<path d="M64.2324 21.2093V17.8806L64.527 17.9396C64.3306 19.0197 63.7415 19.8837 62.7596 20.5318C61.7973 21.1799 60.6386 21.5039 59.2836 21.5039C57.9089 21.5039 56.711 21.1897 55.6898 20.5613C54.6882 19.9132 53.9125 19.0098 53.3627 17.8512C52.8128 16.6925 52.5378 15.3277 52.5378 13.7566C52.5378 12.1659 52.8226 10.7814 53.3921 9.60311C53.9616 8.42482 54.757 7.51164 55.7782 6.86357C56.819 6.21551 58.0267 5.89148 59.4014 5.89148C60.835 5.89148 61.9937 6.22533 62.8774 6.89303C63.7808 7.56073 64.311 8.47391 64.4681 9.63257L64.1441 9.66203V0H68.5627V21.2093H64.2324ZM60.6975 17.969C61.7384 17.969 62.5828 17.6057 63.2309 16.8791C63.8789 16.1328 64.203 15.0724 64.203 13.6977C64.203 12.323 63.8691 11.2724 63.2014 10.5458C62.5534 9.7995 61.6991 9.42637 60.6386 9.42637C59.6174 9.42637 58.773 9.7995 58.1053 10.5458C57.4572 11.292 57.1332 12.3525 57.1332 13.7271C57.1332 15.1018 57.4572 16.1525 58.1053 16.8791C58.773 17.6057 59.6371 17.969 60.6975 17.969Z" fill="black"/>
<path d="M36.8328 21.2095V6.18618H41.163V9.72106H41.2514V21.2095H36.8328ZM47.2901 21.2095V11.9009C47.2901 11.0761 47.0741 10.4575 46.6421 10.0451C46.2297 9.63269 45.6209 9.42649 44.8157 9.42649C44.1284 9.42649 43.5098 9.5836 42.9599 9.89781C42.4297 10.212 42.0074 10.6441 41.6932 11.1939C41.3987 11.7438 41.2514 12.3919 41.2514 13.1381L40.8684 9.51486C41.3594 8.41512 42.0762 7.54122 43.0188 6.89315C43.9811 6.22545 45.1594 5.8916 46.5537 5.8916C48.223 5.8916 49.4994 6.36292 50.3832 7.30556C51.2669 8.22856 51.7087 9.47559 51.7087 11.0466V21.2095H47.2901Z" fill="black"/>
<path d="M23.0771 27.2481L27.2306 18.0574L27.9965 16.7907L31.8849 6.18604H36.5981L27.4957 27.2481H23.0771ZM26.2585 20.9147L20.4849 6.18604H25.257L29.9996 19.6186L26.2585 20.9147Z" fill="black"/>
<path d="M1.11938 21.2093L0 6.18604H4.5659L4.44807 16.6729H4.24187L9.5442 6.18604H13.6682L14.169 16.6729H13.9628L18.6465 6.18604H23.4481L15.3768 21.2093H11.1054L10.5752 10.7519H10.8109L5.44962 21.2093H1.11938Z" fill="black"/>
<path d="M99.1749 27.2412C98.0421 27.2412 97.0415 27.0713 96.173 26.7314C95.3139 26.3916 94.6106 25.9007 94.0631 25.2588C93.525 24.6169 93.171 23.8475 93.0011 22.9507L94.8136 22.7949C94.9741 23.3708 95.2478 23.8664 95.6349 24.2817C96.0219 24.7065 96.5081 25.0322 97.0934 25.2588C97.6881 25.4854 98.382 25.5986 99.1749 25.5986C100.638 25.5986 101.78 25.2116 102.602 24.4375C103.432 23.6634 103.848 22.5731 103.848 21.1665V18.2212H103.805C103.513 18.8442 103.121 19.387 102.63 19.8496C102.149 20.3122 101.582 20.6756 100.931 20.9399C100.279 21.1948 99.562 21.3223 98.7784 21.3223C97.504 21.3223 96.3759 21.0013 95.3942 20.3594C94.4124 19.708 93.643 18.8018 93.0861 17.6406C92.5385 16.4795 92.2648 15.1201 92.2648 13.5625C92.2648 12.0143 92.5385 10.6549 93.0861 9.48438C93.643 8.3138 94.4124 7.40283 95.3942 6.75146C96.3759 6.1001 97.504 5.77441 98.7784 5.77441C99.5714 5.77441 100.294 5.90658 100.945 6.1709C101.606 6.42578 102.182 6.79395 102.672 7.27539C103.173 7.7474 103.56 8.30908 103.834 8.96045H103.876V6.0293H105.674V21.1948C105.674 22.5731 105.387 23.7059 104.811 24.5933C104.244 25.4901 103.47 26.1556 102.488 26.5898C101.507 27.0241 100.402 27.2412 99.1749 27.2412ZM99.0333 19.6372C100.034 19.6372 100.902 19.3918 101.639 18.9009C102.375 18.4006 102.942 17.6973 103.338 16.791C103.744 15.8753 103.947 14.7992 103.947 13.5625C103.947 12.3258 103.744 11.2497 103.338 10.334C102.942 9.41829 102.375 8.70557 101.639 8.1958C100.902 7.68604 100.034 7.43115 99.0333 7.43115C98.0704 7.43115 97.2161 7.6766 96.4703 8.16748C95.734 8.65837 95.1582 9.36165 94.7428 10.2773C94.3274 11.1836 94.1198 12.2786 94.1198 13.5625C94.1198 14.8369 94.3274 15.9272 94.7428 16.8335C95.1676 17.7397 95.7482 18.4336 96.4845 18.915C97.2208 19.3965 98.0704 19.6372 99.0333 19.6372ZM113.606 21.3789C112.577 21.3789 111.647 21.1571 110.816 20.7134C109.986 20.2697 109.33 19.6183 108.848 18.7593C108.367 17.8908 108.126 16.8382 108.126 15.6016V6.0293H109.967V15.4741C109.967 16.8146 110.326 17.853 111.043 18.5894C111.76 19.3162 112.728 19.6797 113.946 19.6797C114.767 19.6797 115.503 19.5145 116.155 19.1841C116.816 18.8442 117.335 18.3439 117.712 17.6831C118.099 17.0129 118.293 16.1963 118.293 15.2334V6.0293H120.134V21.124H118.335V17.5557H118.817C118.373 18.8678 117.689 19.8354 116.764 20.4585C115.848 21.0721 114.795 21.3789 113.606 21.3789ZM122.585 21.124V6.0293H124.426V21.124H122.585ZM123.506 2.8291C123.138 2.8291 122.821 2.70166 122.557 2.44678C122.293 2.18245 122.161 1.87093 122.161 1.51221C122.161 1.14404 122.293 0.83252 122.557 0.577637C122.821 0.322754 123.133 0.195312 123.492 0.195312C123.869 0.195312 124.185 0.322754 124.44 0.577637C124.705 0.83252 124.837 1.14404 124.837 1.51221C124.837 1.87093 124.705 2.18245 124.44 2.44678C124.176 2.70166 123.865 2.8291 123.506 2.8291ZM132.556 21.4072C131.272 21.4072 130.139 21.0815 129.158 20.4302C128.185 19.7694 127.421 18.8537 126.864 17.6831C126.316 16.5031 126.042 15.1343 126.042 13.5767C126.042 12.019 126.316 10.6549 126.864 9.48438C127.421 8.3138 128.19 7.40283 129.172 6.75146C130.153 6.1001 131.282 5.77441 132.556 5.77441C133.34 5.77441 134.062 5.90658 134.722 6.1709C135.383 6.43522 135.954 6.80339 136.436 7.27539C136.927 7.73796 137.3 8.27604 137.555 8.88965H137.611V0.0253906H139.452V21.124H137.654V18.2778H137.597C137.304 18.8914 136.913 19.4342 136.422 19.9062C135.931 20.3783 135.36 20.7464 134.708 21.0107C134.057 21.2751 133.34 21.4072 132.556 21.4072ZM132.797 19.7222C133.807 19.7222 134.68 19.4673 135.416 18.9575C136.153 18.4478 136.719 17.735 137.116 16.8193C137.521 15.8942 137.724 14.8133 137.724 13.5767C137.724 12.34 137.521 11.2638 137.116 10.3481C136.719 9.42301 136.153 8.70557 135.416 8.1958C134.68 7.68604 133.807 7.43115 132.797 7.43115C131.843 7.43115 130.994 7.6766 130.248 8.16748C129.512 8.65837 128.936 9.36165 128.52 10.2773C128.105 11.193 127.897 12.2928 127.897 13.5767C127.897 14.8605 128.105 15.9603 128.52 16.876C128.936 17.7917 129.512 18.495 130.248 18.9858C130.994 19.4767 131.843 19.7222 132.797 19.7222ZM147.95 21.4355C146.534 21.4355 145.311 21.1004 144.282 20.4302C143.253 19.7505 142.461 18.8206 141.904 17.6406C141.347 16.4606 141.068 15.1154 141.068 13.605C141.068 12.0851 141.351 10.7352 141.918 9.55518C142.494 8.36572 143.287 7.43115 144.297 6.75146C145.316 6.07178 146.487 5.73193 147.808 5.73193C148.8 5.73193 149.701 5.91602 150.513 6.28418C151.334 6.65234 152.042 7.17627 152.637 7.85596C153.232 8.53564 153.69 9.34749 154.01 10.2915C154.341 11.2355 154.506 12.2881 154.506 13.4492V14.0581H142.088V12.458H153.472L152.679 12.9819C152.679 11.8774 152.476 10.9051 152.071 10.0649C151.665 9.22477 151.093 8.5734 150.357 8.11084C149.63 7.63883 148.781 7.40283 147.808 7.40283C146.836 7.40283 145.977 7.64355 145.231 8.125C144.495 8.60645 143.919 9.27669 143.504 10.1357C143.098 10.9854 142.895 11.9718 142.895 13.0952V13.8315C142.895 14.9927 143.098 16.0216 143.504 16.9185C143.919 17.8058 144.504 18.4997 145.259 19C146.015 19.5003 146.916 19.7505 147.964 19.7505C148.71 19.7505 149.385 19.623 149.989 19.3682C150.593 19.1133 151.098 18.7593 151.504 18.3062C151.919 17.853 152.217 17.3291 152.396 16.7344L154.223 16.8335C154.015 17.7303 153.614 18.528 153.019 19.2266C152.434 19.9157 151.707 20.4585 150.839 20.855C149.97 21.242 149.007 21.4355 147.95 21.4355Z" fill="#19191B"/>
</svg>
