<svg width="128" height="23" viewBox="0 0 128 23" fill="none" xmlns="http://www.w3.org/2000/svg">
<path d="M62.9386 17.4204C61.5864 17.4204 60.4091 17.1579 59.4068 16.6329C58.4045 16.092 57.625 15.3442 57.0682 14.3897C56.5273 13.4352 56.2568 12.3374 56.2568 11.0965C56.2568 9.83972 56.5273 8.742 57.0682 7.80337C57.625 6.84883 58.3966 6.10906 59.383 5.58406C60.3693 5.04316 61.5148 4.77271 62.8193 4.77271C64.0761 4.77271 65.1659 5.02725 66.0886 5.53634C67.0113 6.04543 67.7272 6.75338 68.2363 7.66019C68.7454 8.567 68.9999 9.63291 68.9999 10.8579C68.9999 11.1124 68.992 11.3511 68.9761 11.5738C68.9602 11.7806 68.9363 11.9795 68.9045 12.1704H58.3568V9.80791H66.017L65.3966 10.2374C65.3966 9.25109 65.1579 8.52723 64.6807 8.06587C64.2193 7.5886 63.5829 7.34996 62.7716 7.34996C61.8329 7.34996 61.1011 7.66814 60.5761 8.3045C60.067 8.94086 59.8125 9.89541 59.8125 11.1681C59.8125 12.409 60.067 13.3317 60.5761 13.9363C61.1011 14.5408 61.8807 14.8431 62.9148 14.8431C63.4875 14.8431 63.9807 14.7477 64.3943 14.5567C64.8079 14.3658 65.1182 14.0556 65.325 13.6261H68.6897C68.292 14.8033 67.6079 15.734 66.6375 16.4181C65.6829 17.0863 64.45 17.4204 62.9386 17.4204Z" fill="black"/>
<path d="M52.0349 17.1817V14.4851L52.2735 14.5329C52.1144 15.4079 51.6371 16.1079 50.8417 16.6329C50.0621 17.1579 49.1235 17.4204 48.0258 17.4204C46.9122 17.4204 45.9417 17.1658 45.1144 16.6567C44.3031 16.1317 43.6747 15.3999 43.2292 14.4613C42.7838 13.5227 42.561 12.417 42.561 11.1443C42.561 9.85563 42.7917 8.73404 43.2531 7.7795C43.7144 6.82496 44.3588 6.08519 45.186 5.5602C46.0292 5.0352 47.0076 4.7727 48.1212 4.7727C49.2826 4.7727 50.2212 5.04315 50.9371 5.58406C51.6689 6.12497 52.0985 6.86474 52.2258 7.80337L51.9633 7.82723V0H55.5428V17.1817H52.0349ZM49.1712 14.5567C50.0144 14.5567 50.6985 14.2624 51.2235 13.6738C51.7485 13.0692 52.011 12.2102 52.011 11.0965C52.011 9.9829 51.7405 9.13177 51.1996 8.54314C50.6746 7.93859 49.9826 7.63632 49.1235 7.63632C48.2962 7.63632 47.6121 7.93859 47.0712 8.54314C46.5462 9.14768 46.2837 10.0068 46.2837 11.1204C46.2837 12.234 46.5462 13.0852 47.0712 13.6738C47.6121 14.2624 48.3121 14.5567 49.1712 14.5567Z" fill="black"/>
<path d="M29.8384 17.1817V5.01134H33.3463V7.87496H33.4179V17.1817H29.8384ZM38.3099 17.1817V9.64086C38.3099 8.97268 38.1349 8.47155 37.7849 8.13746C37.4508 7.80337 36.9577 7.63633 36.3054 7.63633C35.7486 7.63633 35.2474 7.7636 34.802 8.01814C34.3724 8.27269 34.0304 8.62268 33.7759 9.06814C33.5372 9.51359 33.4179 10.0386 33.4179 10.6431L33.1077 7.70792C33.5054 6.81701 34.0861 6.10906 34.8497 5.58406C35.6293 5.04316 36.5838 4.77271 37.7133 4.77271C39.0656 4.77271 40.0997 5.15452 40.8156 5.91815C41.5315 6.66588 41.8894 7.6761 41.8894 8.94882V17.1817H38.3099Z" fill="black"/>
<path d="M18.6948 22.0736L22.0596 14.6282L22.68 13.6021L25.83 5.01123H29.6482L22.2744 22.0736H18.6948ZM21.2721 16.943L16.5948 5.01123H20.4607L24.3028 15.893L21.2721 16.943Z" fill="black"/>
<path d="M0.906813 17.1816L0 5.01123H3.69884L3.60339 13.5066H3.43635L7.73178 5.01123H11.0727L11.4783 13.5066H11.3113L15.1056 5.01123H18.9954L12.4568 17.1816H8.99654L8.567 8.71007H8.75791L4.41475 17.1816H0.906813Z" fill="black"/>
<path d="M79.6212 22.2504C78.7201 22.2504 77.9258 22.1206 77.2385 21.8609C76.5512 21.6089 75.986 21.2462 75.5431 20.7727C75.1002 20.2992 74.7909 19.7417 74.6152 19.1002L76.0128 18.7222C76.1655 19.1422 76.3946 19.5164 76.7001 19.8448C77.0132 20.1732 77.4103 20.429 77.8915 20.6123C78.3726 20.8032 78.9492 20.8987 79.6212 20.8987C80.782 20.8987 81.6985 20.597 82.3705 19.9937C83.0502 19.398 83.3901 18.5236 83.3901 17.3704V14.8044H83.3099C83.096 15.2703 82.8058 15.6941 82.4393 16.076C82.0727 16.4502 81.6259 16.748 81.099 16.9695C80.5797 17.1909 79.9802 17.3017 79.3005 17.3017C78.2695 17.3017 77.3569 17.0458 76.5626 16.5342C75.776 16.0149 75.1574 15.2855 74.7069 14.3462C74.2563 13.4068 74.031 12.2995 74.031 11.0241C74.031 9.74875 74.2525 8.63376 74.6954 7.67914C75.146 6.71689 75.7684 5.96847 76.5626 5.43388C77.3569 4.8993 78.2733 4.63201 79.3119 4.63201C79.9993 4.63201 80.6064 4.75038 81.1333 4.98712C81.6603 5.21623 82.107 5.52935 82.4736 5.92647C82.8478 6.31595 83.1342 6.74744 83.3328 7.22093H83.413V4.82675H84.8907V17.4048C84.8907 18.5045 84.6616 19.4133 84.2034 20.1312C83.7452 20.849 83.1151 21.3798 82.3132 21.7235C81.519 22.0748 80.6217 22.2504 79.6212 22.2504ZM79.5067 15.9385C80.3238 15.9385 81.0264 15.7399 81.6145 15.3428C82.2025 14.938 82.6531 14.3691 82.9662 13.636C83.287 12.8952 83.4473 12.0207 83.4473 11.0127C83.4473 10.0199 83.287 9.14925 82.9662 8.40083C82.6531 7.64478 82.2025 7.05673 81.6145 6.6367C81.0264 6.20903 80.3238 5.9952 79.5067 5.9952C78.7048 5.9952 78.006 6.20521 77.4103 6.62525C76.8223 7.04528 76.3679 7.6295 76.0471 8.37792C75.7264 9.12634 75.566 10.0046 75.566 11.0127C75.566 12.0207 75.7264 12.8952 76.0471 13.636C76.3755 14.3691 76.8337 14.938 77.4218 15.3428C78.0175 15.7399 78.7124 15.9385 79.5067 15.9385ZM91.8253 17.4506C90.9776 17.4506 90.2177 17.2711 89.5457 16.9122C88.8813 16.5456 88.3581 16.0149 87.9763 15.3199C87.5944 14.6249 87.4035 13.7734 87.4035 12.7653V4.82675H88.9156V12.6622C88.9156 13.7314 89.2058 14.5677 89.7862 15.171C90.3743 15.7667 91.1609 16.0645 92.1461 16.0645C92.8105 16.0645 93.4061 15.927 93.9331 15.6521C94.4677 15.3695 94.8915 14.961 95.2046 14.4264C95.5178 13.8842 95.6743 13.2312 95.6743 12.4675V4.82675H97.1864V17.2559H95.7087V14.3347H96.0409C95.682 15.4192 95.1283 16.2096 94.3799 16.706C93.6314 17.2024 92.7799 17.4506 91.8253 17.4506ZM99.6878 17.2559V4.82675H101.2V17.2559H99.6878ZM100.444 2.31801C100.146 2.31801 99.8863 2.21492 99.6649 2.00872C99.451 1.79488 99.3441 1.53905 99.3441 1.24121C99.3441 0.943366 99.451 0.691347 99.6649 0.48515C99.8863 0.271316 100.146 0.164399 100.444 0.164399C100.749 0.164399 101.009 0.271316 101.223 0.48515C101.437 0.691347 101.544 0.943366 101.544 1.24121C101.544 1.53905 101.437 1.79488 101.223 2.00872C101.009 2.21492 100.749 2.31801 100.444 2.31801ZM108.295 17.4964C107.256 17.4964 106.34 17.2291 105.546 16.6945C104.751 16.1523 104.133 15.4001 103.69 14.4378C103.247 13.4679 103.025 12.3415 103.025 11.0585C103.025 9.77548 103.247 8.65285 103.69 7.6906C104.14 6.72071 104.759 5.96847 105.546 5.43388C106.34 4.8993 107.256 4.63201 108.295 4.63201C108.982 4.63201 109.589 4.75038 110.116 4.98712C110.643 5.22387 111.09 5.53698 111.457 5.92647C111.823 6.30831 112.102 6.72834 112.293 7.18656H112.373V0.187309H113.885V17.2559H112.407V14.919H112.316C112.102 15.3772 111.812 15.8048 111.445 16.202C111.079 16.5914 110.632 16.9046 110.105 17.1413C109.586 17.3781 108.982 17.4964 108.295 17.4964ZM108.49 16.1218C109.307 16.1218 110.009 15.9079 110.597 15.4803C111.185 15.0526 111.636 14.4607 111.949 13.7047C112.27 12.941 112.43 12.0551 112.43 11.047C112.43 10.039 112.274 9.15689 111.961 8.40083C111.647 7.64478 111.193 7.05673 110.597 6.6367C110.009 6.20903 109.307 5.9952 108.49 5.9952C107.695 5.9952 107 6.20521 106.405 6.62525C105.817 7.04528 105.362 7.63332 105.042 8.38938C104.721 9.14543 104.56 10.0313 104.56 11.047C104.56 12.0627 104.721 12.9524 105.042 13.7161C105.362 14.4722 105.817 15.0641 106.405 15.4917C107 15.9118 107.695 16.1218 108.49 16.1218ZM121.381 17.5193C120.213 17.5193 119.204 17.2444 118.357 16.6945C117.509 16.137 116.852 15.3772 116.386 14.4149C115.928 13.445 115.699 12.3339 115.699 11.0814C115.699 9.82894 115.932 8.71777 116.398 7.74788C116.864 6.77035 117.513 6.00284 118.345 5.44534C119.178 4.88784 120.132 4.60909 121.209 4.60909C121.981 4.60909 122.695 4.75038 123.351 5.03294C124.008 5.31551 124.581 5.72791 125.07 6.27013C125.566 6.81235 125.952 7.47295 126.227 8.25191C126.509 9.02324 126.65 9.90531 126.65 10.8981V11.4594H116.593V10.1421H125.814L125.138 10.6003C125.138 9.69911 124.978 8.90105 124.657 8.20609C124.336 7.51113 123.882 6.96891 123.294 6.57942C122.706 6.1823 122.011 5.98374 121.209 5.98374C120.415 5.98374 119.716 6.18612 119.113 6.59088C118.517 6.988 118.051 7.53786 117.715 8.24046C117.379 8.93542 117.211 9.72202 117.211 10.6003V11.2761C117.211 12.2384 117.379 13.0861 117.715 13.8192C118.059 14.5524 118.54 15.1252 119.159 15.5375C119.785 15.9423 120.526 16.1447 121.381 16.1447C121.984 16.1447 122.523 16.0454 122.996 15.8468C123.477 15.6406 123.878 15.3657 124.199 15.0221C124.527 14.6708 124.764 14.2736 124.909 13.8307L126.387 14.0483C126.211 14.7051 125.891 15.297 125.425 15.8239C124.959 16.3432 124.382 16.7556 123.695 17.0611C123.008 17.3666 122.236 17.5193 121.381 17.5193Z" fill="#19191B"/>
</svg>
