<svg width="680" height="348" viewBox="0 0 680 348" fill="none" xmlns="http://www.w3.org/2000/svg">
<path d="M0 12C0 5.37259 5.37258 0 12 0H668C674.627 0 680 5.37258 680 12V336C680 342.627 674.627 348 668 348H12C5.3726 348 0 342.627 0 336V12Z" fill="#FCD2FE"/>
<circle cx="340.5" cy="120.5" r="109" transform="rotate(90 340.5 120.5)" stroke="#921895"/>
<path d="M396.5 228C396.5 287.921 347.701 336.5 287.5 336.5C227.299 336.5 178.5 287.921 178.5 228C178.5 168.079 227.299 119.5 287.5 119.5C347.701 119.5 396.5 168.079 396.5 228Z" stroke="#921895"/>
<path d="M523.5 228C523.5 287.921 474.701 336.5 414.5 336.5C354.299 336.5 305.5 287.921 305.5 228C305.5 168.079 354.299 119.5 414.5 119.5C474.701 119.5 523.5 168.079 523.5 228Z" stroke="#921895"/>
<mask id="path-5-inside-1_476_3083" fill="white">
<path d="M351 139.19C375.445 156.541 392.422 183.643 396.202 214.792C379.883 224.453 360.839 230 340.5 230C328.1 230 316.182 227.937 305.069 224.139C306.295 189.094 324.139 158.256 351 139.19Z"/>
</mask>
<path d="M351 139.19L351.289 138.783L351 138.577L350.71 138.783L351 139.19ZM396.202 214.792L396.457 215.222L396.738 215.056L396.698 214.732L396.202 214.792ZM340.5 230V230.5V230.5V230ZM305.069 224.139L304.57 224.121L304.557 224.492L304.908 224.612L305.069 224.139ZM351 139.19L350.71 138.783C349.343 139.753 347.999 140.754 346.679 141.784L346.987 142.178L347.295 142.572C348.603 141.552 349.934 140.56 351.289 139.598L351 139.19ZM339.39 148.685L339.048 148.321C336.605 150.614 334.267 153.018 332.043 155.524L332.417 155.856L332.79 156.188C334.995 153.705 337.311 151.323 339.733 149.05L339.39 148.685ZM326.124 163.631L325.722 163.335C323.738 166.029 321.875 168.817 320.141 171.691L320.569 171.949L320.997 172.208C322.715 169.36 324.561 166.598 326.527 163.928L326.124 163.631ZM315.8 180.742L315.35 180.524C313.895 183.53 312.574 186.612 311.395 189.762L311.863 189.938L312.331 190.113C313.5 186.991 314.809 183.938 316.25 180.96L315.8 180.742ZM308.794 199.457L308.312 199.326C307.438 202.539 306.708 205.811 306.128 209.134L306.621 209.22L307.113 209.306C307.688 206.013 308.411 202.772 309.277 199.588L308.794 199.457ZM305.358 219.142L304.86 219.102C304.725 220.765 304.628 222.438 304.57 224.121L305.069 224.139L305.569 224.156C305.627 222.488 305.723 220.83 305.857 219.182L305.358 219.142ZM305.069 224.139L304.908 224.612C306.333 225.099 307.772 225.558 309.223 225.988L309.365 225.508L309.507 225.029C308.069 224.603 306.644 224.148 305.231 223.666L305.069 224.139ZM318.109 227.707L318.007 228.197C320.945 228.808 323.926 229.301 326.944 229.672L327.005 229.176L327.066 228.68C324.075 228.312 321.122 227.823 318.211 227.218L318.109 227.707ZM335.992 229.909L335.971 230.408C337.473 230.469 338.983 230.5 340.5 230.5V230V229.5C338.997 229.5 337.5 229.47 336.012 229.409L335.992 229.909ZM340.5 230V230.5C342.139 230.5 343.769 230.464 345.391 230.393L345.369 229.894L345.347 229.394C343.74 229.464 342.124 229.5 340.5 229.5V230ZM355.067 229.039L355.133 229.535C358.39 229.102 361.601 228.526 364.762 227.815L364.652 227.327L364.542 226.839C361.411 227.544 358.228 228.115 355.002 228.544L355.067 229.039ZM374.045 224.765L374.198 225.241C377.317 224.238 380.376 223.1 383.366 221.833L383.171 221.373L382.976 220.913C380.013 222.168 376.983 223.296 373.892 224.289L374.045 224.765ZM391.958 217.179L392.193 217.62C393.634 216.851 395.055 216.052 396.457 215.222L396.202 214.792L395.947 214.362C394.559 215.184 393.15 215.976 391.723 216.738L391.958 217.179ZM396.202 214.792L396.698 214.732C396.515 213.218 396.3 211.715 396.055 210.221L395.562 210.302L395.068 210.383C395.311 211.863 395.524 213.353 395.706 214.852L396.202 214.792ZM393.72 201.426L394.205 201.304C393.46 198.344 392.595 195.432 391.613 192.573L391.14 192.735L390.667 192.898C391.64 195.73 392.498 198.615 393.236 201.548L393.72 201.426ZM387.839 184.292L388.297 184.091C387.07 181.303 385.73 178.576 384.282 175.916L383.843 176.155L383.403 176.394C384.838 179.03 386.166 181.732 387.382 184.494L387.839 184.292ZM379.181 168.38L379.599 168.105C377.928 165.564 376.154 163.097 374.283 160.71L373.89 161.018L373.496 161.326C375.35 163.693 377.108 166.137 378.763 168.654L379.181 168.38ZM368.008 154.119L368.375 153.78C366.311 151.552 364.156 149.411 361.915 147.36L361.578 147.729L361.24 148.098C363.461 150.13 365.597 152.252 367.641 154.459L368.008 154.119ZM354.642 141.891L354.948 141.495C353.748 140.567 352.528 139.662 351.289 138.783L351 139.19L350.71 139.598C351.938 140.47 353.147 141.366 354.336 142.286L354.642 141.891ZM351 139.19L351.579 138.375L351 137.964L350.421 138.375L351 139.19ZM396.202 214.792L396.711 215.653L397.273 215.32L397.195 214.672L396.202 214.792ZM340.5 230V231V231V230ZM305.069 224.139L304.07 224.104L304.044 224.845L304.746 225.085L305.069 224.139ZM351 139.19L350.421 138.375C349.048 139.35 347.698 140.355 346.372 141.39L346.987 142.178L347.602 142.967C348.904 141.95 350.23 140.963 351.579 140.006L351 139.19ZM339.39 148.685L338.706 147.956C336.252 150.26 333.903 152.675 331.669 155.192L332.417 155.856L333.164 156.52C335.359 154.048 337.665 151.677 340.075 149.414L339.39 148.685ZM326.124 163.631L325.319 163.039C323.326 165.745 321.455 168.546 319.713 171.433L320.569 171.949L321.425 172.466C323.136 169.632 324.973 166.882 326.93 164.224L326.124 163.631ZM315.8 180.742L314.9 180.306C313.439 183.326 312.111 186.422 310.926 189.587L311.863 189.938L312.799 190.288C313.963 187.181 315.265 184.142 316.7 181.178L315.8 180.742ZM308.794 199.457L307.829 199.195C306.952 202.423 306.218 205.71 305.636 209.048L306.621 209.22L307.606 209.392C308.178 206.114 308.898 202.888 309.759 199.719L308.794 199.457ZM305.358 219.142L304.361 219.061C304.226 220.732 304.129 222.413 304.07 224.104L305.069 224.139L306.069 224.174C306.127 222.513 306.222 220.863 306.355 219.222L305.358 219.142ZM305.069 224.139L304.746 225.085C306.178 225.574 307.623 226.035 309.081 226.467L309.365 225.508L309.649 224.549C308.218 224.126 306.799 223.673 305.393 223.192L305.069 224.139ZM318.109 227.707L317.906 228.686C320.857 229.3 323.851 229.796 326.883 230.169L327.005 229.176L327.127 228.184C324.15 227.817 321.21 227.331 318.313 226.728L318.109 227.707ZM335.992 229.909L335.951 230.908C337.46 230.969 338.976 231 340.5 231V230V229C339.003 229 337.514 228.97 336.032 228.91L335.992 229.909ZM340.5 230V231C342.146 231 343.784 230.964 345.413 230.893L345.369 229.894L345.325 228.895C343.726 228.965 342.117 229 340.5 229V230ZM355.067 229.039L355.199 230.031C358.471 229.596 361.697 229.017 364.871 228.303L364.652 227.327L364.432 226.352C361.315 227.053 358.148 227.621 354.936 228.048L355.067 229.039ZM374.045 224.765L374.351 225.717C377.485 224.71 380.557 223.566 383.561 222.294L383.171 221.373L382.781 220.452C379.832 221.702 376.815 222.824 373.739 223.813L374.045 224.765ZM391.958 217.179L392.428 218.061C393.876 217.289 395.304 216.486 396.711 215.653L396.202 214.792L395.693 213.931C394.31 214.75 392.908 215.538 391.487 216.296L391.958 217.179ZM396.202 214.792L397.195 214.672C397.01 213.151 396.795 211.641 396.549 210.14L395.562 210.302L394.575 210.464C394.817 211.937 395.028 213.42 395.209 214.912L396.202 214.792ZM393.72 201.426L394.69 201.182C393.942 198.208 393.072 195.283 392.086 192.411L391.14 192.735L390.194 193.06C391.162 195.879 392.016 198.751 392.751 201.67L393.72 201.426ZM387.839 184.292L388.755 183.89C387.522 181.089 386.175 178.35 384.721 175.677L383.843 176.155L382.964 176.633C384.392 179.257 385.714 181.946 386.924 184.695L387.839 184.292ZM379.181 168.38L380.016 167.83C378.338 165.278 376.557 162.8 374.677 160.401L373.89 161.018L373.103 161.635C374.948 163.99 376.698 166.423 378.345 168.929L379.181 168.38ZM368.008 154.119L368.742 153.44C366.669 151.202 364.504 149.051 362.253 146.991L361.578 147.729L360.902 148.467C363.113 150.489 365.239 152.602 367.275 154.799L368.008 154.119ZM354.642 141.891L355.254 141.1C354.049 140.167 352.823 139.258 351.579 138.375L351 139.19L350.421 140.006C351.643 140.873 352.847 141.765 354.03 142.681L354.642 141.891Z" fill="#FCD2FE" mask="url(#path-5-inside-1_476_3083)"/>
<path d="M302.012 76V68.3574H303.516V71.6045H304.22L306.756 68.3574H308.595L305.655 72.083L308.636 76H306.783L304.486 72.9033H303.516V76H302.012ZM311.831 76.1709C311.347 76.1709 310.91 76.082 310.518 75.9043C310.126 75.722 309.816 75.4577 309.588 75.1113C309.36 74.765 309.247 74.3411 309.247 73.8398C309.247 73.4069 309.329 73.0514 309.493 72.7734C309.661 72.4954 309.887 72.2744 310.169 72.1104C310.457 71.9463 310.773 71.8232 311.12 71.7412C311.471 71.6592 311.826 71.5977 312.186 71.5566C312.637 71.502 313.004 71.4587 313.287 71.4268C313.569 71.3903 313.777 71.3333 313.909 71.2559C314.045 71.1738 314.114 71.0439 314.114 70.8662V70.8252C314.114 70.5381 314.059 70.2965 313.95 70.1006C313.84 69.9046 313.676 69.7542 313.457 69.6494C313.243 69.54 312.974 69.4854 312.651 69.4854C312.318 69.4854 312.031 69.5378 311.79 69.6426C311.553 69.7428 311.359 69.8727 311.208 70.0322C311.063 70.1917 310.953 70.3581 310.88 70.5312L309.465 70.1621C309.638 69.7064 309.887 69.3395 310.21 69.0615C310.534 68.7835 310.905 68.5807 311.325 68.4531C311.744 68.3255 312.177 68.2617 312.624 68.2617C312.933 68.2617 313.262 68.2982 313.608 68.3711C313.954 68.444 314.28 68.5762 314.585 68.7676C314.891 68.959 315.139 69.2279 315.331 69.5742C315.522 69.9206 315.618 70.3717 315.618 70.9277V76H314.162V74.9541H314.086C313.986 75.1501 313.838 75.3415 313.642 75.5283C313.446 75.7152 313.198 75.8701 312.897 75.9932C312.601 76.1117 312.245 76.1709 311.831 76.1709ZM312.166 74.9609C312.576 74.9609 312.927 74.8812 313.218 74.7217C313.51 74.5622 313.733 74.3503 313.888 74.0859C314.043 73.8216 314.121 73.5413 314.121 73.2451V72.2676C314.066 72.3223 313.961 72.3724 313.806 72.418C313.656 72.459 313.483 72.4977 313.287 72.5342C313.091 72.5661 312.902 72.5934 312.719 72.6162C312.537 72.639 312.387 72.6572 312.268 72.6709C311.985 72.7074 311.726 72.7689 311.489 72.8555C311.256 72.9421 311.069 73.0651 310.928 73.2246C310.791 73.3841 310.723 73.596 310.723 73.8604C310.723 74.1019 310.785 74.3047 310.908 74.4688C311.035 74.6328 311.206 74.7559 311.42 74.8379C311.635 74.9199 311.883 74.9609 312.166 74.9609ZM320.645 73.6689C319.678 73.6689 318.92 73.4342 318.368 72.9648C317.821 72.4954 317.548 71.7913 317.548 70.8525V68.3574H319.052V70.8525C319.052 71.3857 319.195 71.7731 319.482 72.0146C319.774 72.2516 320.162 72.3701 320.645 72.3701C321.087 72.3701 321.499 72.3268 321.882 72.2402C322.265 72.1536 322.654 72.042 323.051 71.9053V73.2041C322.818 73.2907 322.575 73.3704 322.319 73.4434C322.064 73.5117 321.798 73.5664 321.52 73.6074C321.242 73.6484 320.95 73.6689 320.645 73.6689ZM322.217 76V68.3574H323.721V76H322.217ZM328.946 76.1572C328.194 76.1572 327.545 75.9954 326.998 75.6719C326.451 75.3483 326.029 74.8926 325.733 74.3047C325.441 73.7168 325.296 73.0264 325.296 72.2334C325.296 71.4495 325.439 70.7591 325.726 70.1621C326.018 69.5651 326.428 69.1003 326.957 68.7676C327.485 68.4303 328.105 68.2617 328.816 68.2617C329.254 68.2617 329.675 68.3346 330.081 68.4805C330.486 68.6217 330.851 68.8451 331.174 69.1504C331.498 69.4557 331.753 69.8522 331.94 70.3398C332.132 70.8229 332.227 71.4108 332.227 72.1035V72.6367H326.136V71.5156H331.455L330.751 71.8848C330.751 71.4154 330.678 71.0029 330.532 70.6475C330.386 70.2874 330.17 70.0072 329.882 69.8066C329.6 69.6061 329.244 69.5059 328.816 69.5059C328.392 69.5059 328.03 69.6084 327.729 69.8135C327.428 70.0186 327.198 70.2897 327.039 70.627C326.884 70.9596 326.806 71.3242 326.806 71.7207V72.4863C326.806 73.0104 326.895 73.4548 327.073 73.8193C327.255 74.1794 327.508 74.4528 327.832 74.6396C328.155 74.8219 328.531 74.9131 328.96 74.9131C329.242 74.9131 329.497 74.8743 329.725 74.7969C329.953 74.7148 330.149 74.5941 330.313 74.4346C330.482 74.2705 330.609 74.07 330.696 73.833L332.111 74.168C331.988 74.5599 331.781 74.9062 331.489 75.207C331.202 75.5078 330.842 75.7425 330.409 75.9111C329.98 76.0752 329.493 76.1572 328.946 76.1572ZM336.994 76.1572C336.274 76.1572 335.648 75.9932 335.115 75.665C334.581 75.3369 334.167 74.8766 333.87 74.2842C333.574 73.6917 333.426 73.0036 333.426 72.2197C333.426 71.4268 333.574 70.734 333.87 70.1416C334.167 69.5446 334.581 69.082 335.115 68.7539C335.648 68.4258 336.274 68.2617 336.994 68.2617C337.391 68.2617 337.762 68.3141 338.109 68.4189C338.455 68.5192 338.767 68.6673 339.045 68.8633C339.328 69.0547 339.565 69.2917 339.756 69.5742C339.952 69.8522 340.098 70.1667 340.194 70.5176L338.765 70.8594C338.715 70.6634 338.637 70.4857 338.532 70.3262C338.428 70.1621 338.3 70.0208 338.15 69.9023C338.004 69.7839 337.833 69.6927 337.637 69.6289C337.446 69.5651 337.234 69.5332 337.001 69.5332C336.541 69.5332 336.158 69.6562 335.853 69.9023C335.552 70.1439 335.326 70.4674 335.176 70.873C335.03 71.2786 334.957 71.7275 334.957 72.2197C334.957 72.7074 335.03 73.154 335.176 73.5596C335.326 73.9606 335.552 74.2819 335.853 74.5234C336.158 74.765 336.541 74.8857 337.001 74.8857C337.238 74.8857 337.455 74.8538 337.651 74.79C337.847 74.7217 338.022 74.6283 338.177 74.5098C338.332 74.3867 338.462 74.2409 338.567 74.0723C338.671 73.8991 338.747 73.71 338.792 73.5049L340.214 73.8467C340.123 74.2067 339.979 74.5303 339.783 74.8174C339.588 75.0999 339.348 75.3415 339.066 75.542C338.788 75.7425 338.473 75.8952 338.122 76C337.771 76.1048 337.395 76.1572 336.994 76.1572ZM343.368 76V69.6289H340.887V68.3574H347.34V69.6289H344.872V76H343.368ZM348.566 76V68.3574H351.731C352.592 68.3574 353.276 68.542 353.782 68.9111C354.292 69.2757 354.547 69.7725 354.547 70.4014C354.547 70.8389 354.406 71.1898 354.124 71.4541C353.846 71.7184 353.465 71.8984 352.982 71.9941C353.328 72.0306 353.645 72.1331 353.932 72.3018C354.219 72.4658 354.449 72.6868 354.623 72.9648C354.796 73.2383 354.882 73.5641 354.882 73.9424C354.882 74.3434 354.775 74.7012 354.561 75.0156C354.351 75.3255 354.048 75.5671 353.652 75.7402C353.255 75.9134 352.777 76 352.216 76H348.566ZM349.981 74.7354H352.216C352.581 74.7354 352.866 74.6488 353.071 74.4756C353.276 74.3024 353.378 74.0677 353.378 73.7715C353.378 73.416 353.276 73.1403 353.071 72.9443C352.866 72.7438 352.581 72.6436 352.216 72.6436H349.981V74.7354ZM349.981 71.543H351.745C352.164 71.543 352.49 71.4564 352.722 71.2832C352.959 71.11 353.078 70.873 353.078 70.5723C353.078 70.2806 352.957 70.0527 352.715 69.8887C352.478 69.7201 352.15 69.6357 351.731 69.6357H349.981V71.543ZM359.732 76.1572C358.98 76.1572 358.33 75.9954 357.783 75.6719C357.236 75.3483 356.815 74.8926 356.519 74.3047C356.227 73.7168 356.081 73.0264 356.081 72.2334C356.081 71.4495 356.225 70.7591 356.512 70.1621C356.803 69.5651 357.214 69.1003 357.742 68.7676C358.271 68.4303 358.891 68.2617 359.602 68.2617C360.039 68.2617 360.461 68.3346 360.866 68.4805C361.272 68.6217 361.636 68.8451 361.96 69.1504C362.284 69.4557 362.539 69.8522 362.726 70.3398C362.917 70.8229 363.013 71.4108 363.013 72.1035V72.6367H356.922V71.5156H362.24L361.536 71.8848C361.536 71.4154 361.463 71.0029 361.317 70.6475C361.172 70.2874 360.955 70.0072 360.668 69.8066C360.385 69.6061 360.03 69.5059 359.602 69.5059C359.178 69.5059 358.816 69.6084 358.515 69.8135C358.214 70.0186 357.984 70.2897 357.824 70.627C357.669 70.9596 357.592 71.3242 357.592 71.7207V72.4863C357.592 73.0104 357.681 73.4548 357.858 73.8193C358.041 74.1794 358.294 74.4528 358.617 74.6396C358.941 74.8219 359.317 74.9131 359.745 74.9131C360.028 74.9131 360.283 74.8743 360.511 74.7969C360.739 74.7148 360.935 74.5941 361.099 74.4346C361.267 74.2705 361.395 74.07 361.482 73.833L362.897 74.168C362.774 74.5599 362.566 74.9062 362.274 75.207C361.987 75.5078 361.627 75.7425 361.194 75.9111C360.766 76.0752 360.278 76.1572 359.732 76.1572ZM369.81 71.4199V72.7256H365.681V71.4199H369.81ZM366.071 68.3574V76H364.567V68.3574H366.071ZM370.938 68.3574V76H369.434V68.3574H370.938ZM378.105 71.4199V72.7256H373.976V71.4199H378.105ZM374.366 68.3574V76H372.862V68.3574H374.366ZM379.233 68.3574V76H377.729V68.3574H379.233ZM384.369 76.1572C383.654 76.1572 383.027 75.9932 382.489 75.665C381.956 75.3369 381.541 74.8766 381.245 74.2842C380.949 73.6917 380.801 73.0036 380.801 72.2197C380.801 71.4268 380.949 70.734 381.245 70.1416C381.541 69.5446 381.956 69.082 382.489 68.7539C383.027 68.4258 383.654 68.2617 384.369 68.2617C385.089 68.2617 385.716 68.4258 386.249 68.7539C386.787 69.082 387.204 69.5446 387.5 70.1416C387.796 70.734 387.944 71.4268 387.944 72.2197C387.944 73.0036 387.796 73.6917 387.5 74.2842C387.204 74.8766 386.787 75.3369 386.249 75.665C385.716 75.9932 385.089 76.1572 384.369 76.1572ZM384.369 74.8857C384.834 74.8857 385.217 74.765 385.517 74.5234C385.823 74.2773 386.048 73.9538 386.194 73.5527C386.345 73.1471 386.42 72.7028 386.42 72.2197C386.42 71.7321 386.345 71.2855 386.194 70.8799C386.048 70.4697 385.823 70.1439 385.517 69.9023C385.217 69.6562 384.834 69.5332 384.369 69.5332C383.909 69.5332 383.528 69.6562 383.227 69.9023C382.927 70.1439 382.701 70.4674 382.551 70.873C382.405 71.2786 382.332 71.7275 382.332 72.2197C382.332 72.7028 382.405 73.1471 382.551 73.5527C382.701 73.9538 382.927 74.2773 383.227 74.5234C383.528 74.765 383.909 74.8857 384.369 74.8857Z" fill="#921895"/>
<path d="M221.218 249.164C220.543 249.164 219.937 249.009 219.399 248.699C218.862 248.385 218.435 247.934 218.121 247.346C217.811 246.758 217.656 246.056 217.656 245.24V244.994C217.656 244.27 217.699 243.625 217.786 243.06C217.873 242.494 218.012 242.007 218.203 241.597C218.399 241.182 218.656 240.836 218.975 240.558C219.299 240.28 219.693 240.063 220.158 239.908C220.627 239.753 221.179 239.655 221.812 239.614C222.131 239.596 222.371 239.555 222.53 239.491C222.694 239.427 222.804 239.341 222.858 239.231C222.918 239.122 222.947 238.983 222.947 238.814H224.212C224.212 239.243 224.134 239.596 223.979 239.874C223.824 240.152 223.574 240.364 223.227 240.51C222.886 240.656 222.43 240.749 221.86 240.79C221.195 240.836 220.653 240.945 220.233 241.118C219.814 241.287 219.495 241.578 219.276 241.993C219.062 242.403 218.921 242.998 218.852 243.777H218.893C219.03 243.431 219.24 243.107 219.522 242.807C219.805 242.506 220.14 242.262 220.527 242.075C220.919 241.888 221.341 241.795 221.792 241.795C222.339 241.795 222.833 241.95 223.275 242.26C223.717 242.57 224.068 242.993 224.328 243.531C224.592 244.069 224.724 244.68 224.724 245.363C224.724 246.088 224.574 246.737 224.273 247.312C223.973 247.886 223.558 248.339 223.029 248.672C222.505 249 221.901 249.164 221.218 249.164ZM221.231 247.913C221.651 247.913 222.008 247.815 222.305 247.619C222.605 247.419 222.835 247.134 222.995 246.765C223.159 246.396 223.241 245.951 223.241 245.432C223.241 244.917 223.164 244.477 223.009 244.112C222.858 243.748 222.637 243.467 222.346 243.271C222.054 243.076 221.701 242.978 221.286 242.978C220.862 242.978 220.488 243.082 220.165 243.292C219.846 243.502 219.598 243.796 219.42 244.174C219.242 244.548 219.153 244.985 219.153 245.486C219.153 245.956 219.235 246.375 219.399 246.744C219.568 247.109 219.807 247.396 220.117 247.605C220.427 247.811 220.798 247.913 221.231 247.913ZM227.441 243.982H229.663C230.291 243.982 230.825 244.09 231.262 244.304C231.7 244.513 232.032 244.805 232.26 245.179C232.488 245.552 232.602 245.985 232.602 246.478C232.602 246.956 232.486 247.387 232.253 247.77C232.026 248.148 231.693 248.449 231.255 248.672C230.822 248.891 230.291 249 229.663 249H226.306V241.357H227.81V247.701H229.663C230.086 247.701 230.433 247.592 230.702 247.373C230.971 247.154 231.105 246.869 231.105 246.519C231.105 246.149 230.971 245.851 230.702 245.623C230.433 245.395 230.086 245.281 229.663 245.281H227.441V243.982ZM233.416 249V241.357H234.919V249H233.416ZM240.056 249.157C239.336 249.157 238.709 248.993 238.176 248.665C237.643 248.337 237.228 247.877 236.932 247.284C236.635 246.692 236.487 246.004 236.487 245.22C236.487 244.427 236.635 243.734 236.932 243.142C237.228 242.545 237.643 242.082 238.176 241.754C238.709 241.426 239.336 241.262 240.056 241.262C240.452 241.262 240.824 241.314 241.17 241.419C241.516 241.519 241.829 241.667 242.107 241.863C242.389 242.055 242.626 242.292 242.817 242.574C243.013 242.852 243.159 243.167 243.255 243.518L241.826 243.859C241.776 243.663 241.699 243.486 241.594 243.326C241.489 243.162 241.361 243.021 241.211 242.902C241.065 242.784 240.894 242.693 240.698 242.629C240.507 242.565 240.295 242.533 240.063 242.533C239.602 242.533 239.219 242.656 238.914 242.902C238.613 243.144 238.388 243.467 238.237 243.873C238.092 244.279 238.019 244.728 238.019 245.22C238.019 245.707 238.092 246.154 238.237 246.56C238.388 246.961 238.613 247.282 238.914 247.523C239.219 247.765 239.602 247.886 240.063 247.886C240.3 247.886 240.516 247.854 240.712 247.79C240.908 247.722 241.083 247.628 241.238 247.51C241.393 247.387 241.523 247.241 241.628 247.072C241.733 246.899 241.808 246.71 241.854 246.505L243.275 246.847C243.184 247.207 243.041 247.53 242.845 247.817C242.649 248.1 242.41 248.341 242.127 248.542C241.849 248.743 241.535 248.895 241.184 249C240.833 249.105 240.457 249.157 240.056 249.157ZM246.429 249V242.629H243.948V241.357H250.401V242.629H247.933V249H246.429ZM251.627 251.857V241.357H253.09V242.602H253.213C253.304 242.442 253.43 242.257 253.589 242.048C253.753 241.838 253.979 241.656 254.266 241.501C254.558 241.341 254.943 241.262 255.421 241.262C256.032 241.262 256.576 241.417 257.055 241.727C257.538 242.036 257.919 242.485 258.197 243.073C258.475 243.661 258.614 244.37 258.614 245.199C258.614 246.02 258.477 246.726 258.203 247.318C257.93 247.906 257.552 248.36 257.069 248.679C256.59 248.993 256.041 249.15 255.421 249.15C254.961 249.15 254.583 249.073 254.286 248.918C253.995 248.758 253.765 248.574 253.596 248.364C253.432 248.155 253.304 247.968 253.213 247.804H253.131V251.857H251.627ZM255.086 247.872C255.524 247.872 255.891 247.754 256.187 247.517C256.483 247.28 256.704 246.958 256.85 246.553C257 246.147 257.075 245.691 257.075 245.186C257.075 244.684 257 244.235 256.85 243.839C256.704 243.438 256.483 243.121 256.187 242.889C255.895 242.656 255.528 242.54 255.086 242.54C254.658 242.54 254.296 242.652 253.999 242.875C253.703 243.094 253.48 243.401 253.329 243.798C253.179 244.19 253.104 244.652 253.104 245.186C253.104 245.714 253.179 246.181 253.329 246.587C253.484 246.988 253.71 247.302 254.006 247.53C254.302 247.758 254.662 247.872 255.086 247.872ZM263.394 249.157C262.679 249.157 262.052 248.993 261.515 248.665C260.981 248.337 260.567 247.877 260.27 247.284C259.974 246.692 259.826 246.004 259.826 245.22C259.826 244.427 259.974 243.734 260.27 243.142C260.567 242.545 260.981 242.082 261.515 241.754C262.052 241.426 262.679 241.262 263.394 241.262C264.114 241.262 264.741 241.426 265.274 241.754C265.812 242.082 266.229 242.545 266.525 243.142C266.821 243.734 266.97 244.427 266.97 245.22C266.97 246.004 266.821 246.692 266.525 247.284C266.229 247.877 265.812 248.337 265.274 248.665C264.741 248.993 264.114 249.157 263.394 249.157ZM263.394 247.886C263.859 247.886 264.242 247.765 264.543 247.523C264.848 247.277 265.074 246.954 265.22 246.553C265.37 246.147 265.445 245.703 265.445 245.22C265.445 244.732 265.37 244.285 265.22 243.88C265.074 243.47 264.848 243.144 264.543 242.902C264.242 242.656 263.859 242.533 263.394 242.533C262.934 242.533 262.554 242.656 262.253 242.902C261.952 243.144 261.726 243.467 261.576 243.873C261.43 244.279 261.357 244.728 261.357 245.22C261.357 245.703 261.43 246.147 261.576 246.553C261.726 246.954 261.952 247.277 262.253 247.523C262.554 247.765 262.934 247.886 263.394 247.886Z" fill="#921895"/>
<path d="M441.273 251.208V247.701H441.889C442.048 247.555 442.182 247.382 442.292 247.182C442.406 246.981 442.502 246.742 442.579 246.464C442.656 246.181 442.72 245.853 442.77 245.479C442.825 245.106 442.873 244.68 442.914 244.201L443.153 241.357H448.369V247.701H449.531V251.208H448.068V249H442.764V251.208H441.273ZM443.509 247.701H446.906V242.649H444.473L444.336 244.201C444.272 245.017 444.179 245.716 444.056 246.3C443.937 246.879 443.755 247.346 443.509 247.701ZM453.779 249.157C453.027 249.157 452.377 248.995 451.831 248.672C451.284 248.348 450.862 247.893 450.566 247.305C450.274 246.717 450.128 246.026 450.128 245.233C450.128 244.45 450.272 243.759 450.559 243.162C450.851 242.565 451.261 242.1 451.79 241.768C452.318 241.43 452.938 241.262 453.649 241.262C454.086 241.262 454.508 241.335 454.914 241.48C455.319 241.622 455.684 241.845 456.007 242.15C456.331 242.456 456.586 242.852 456.773 243.34C456.964 243.823 457.06 244.411 457.06 245.104V245.637H450.969V244.516H456.288L455.583 244.885C455.583 244.415 455.511 244.003 455.365 243.647C455.219 243.287 455.002 243.007 454.715 242.807C454.433 242.606 454.077 242.506 453.649 242.506C453.225 242.506 452.863 242.608 452.562 242.813C452.261 243.019 452.031 243.29 451.872 243.627C451.717 243.96 451.639 244.324 451.639 244.721V245.486C451.639 246.01 451.728 246.455 451.906 246.819C452.088 247.179 452.341 247.453 452.665 247.64C452.988 247.822 453.364 247.913 453.792 247.913C454.075 247.913 454.33 247.874 454.558 247.797C454.786 247.715 454.982 247.594 455.146 247.435C455.315 247.271 455.442 247.07 455.529 246.833L456.944 247.168C456.821 247.56 456.613 247.906 456.322 248.207C456.035 248.508 455.675 248.743 455.242 248.911C454.813 249.075 454.326 249.157 453.779 249.157ZM458.614 241.357H460.118V247.701H462.709V241.357H464.186V247.701H466.776V241.357H468.28V249H458.614V241.357ZM473.499 249.157C472.747 249.157 472.097 248.995 471.55 248.672C471.004 248.348 470.582 247.893 470.286 247.305C469.994 246.717 469.848 246.026 469.848 245.233C469.848 244.45 469.992 243.759 470.279 243.162C470.571 242.565 470.981 242.1 471.509 241.768C472.038 241.43 472.658 241.262 473.369 241.262C473.806 241.262 474.228 241.335 474.633 241.48C475.039 241.622 475.404 241.845 475.727 242.15C476.051 242.456 476.306 242.852 476.493 243.34C476.684 243.823 476.78 244.411 476.78 245.104V245.637H470.689V244.516H476.007L475.303 244.885C475.303 244.415 475.23 244.003 475.085 243.647C474.939 243.287 474.722 243.007 474.435 242.807C474.153 242.606 473.797 242.506 473.369 242.506C472.945 242.506 472.583 242.608 472.282 242.813C471.981 243.019 471.751 243.29 471.591 243.627C471.437 243.96 471.359 244.324 471.359 244.721V245.486C471.359 246.01 471.448 246.455 471.626 246.819C471.808 247.179 472.061 247.453 472.384 247.64C472.708 247.822 473.084 247.913 473.512 247.913C473.795 247.913 474.05 247.874 474.278 247.797C474.506 247.715 474.702 247.594 474.866 247.435C475.035 247.271 475.162 247.07 475.249 246.833L476.664 247.168C476.541 247.56 476.333 247.906 476.042 248.207C475.755 248.508 475.395 248.743 474.962 248.911C474.533 249.075 474.046 249.157 473.499 249.157ZM478.334 249V241.357H481.499C482.361 241.357 483.044 241.542 483.55 241.911C484.06 242.276 484.316 242.772 484.316 243.401C484.316 243.839 484.174 244.19 483.892 244.454C483.614 244.718 483.233 244.898 482.75 244.994C483.097 245.031 483.413 245.133 483.7 245.302C483.988 245.466 484.218 245.687 484.391 245.965C484.564 246.238 484.651 246.564 484.651 246.942C484.651 247.343 484.544 247.701 484.329 248.016C484.12 248.326 483.817 248.567 483.42 248.74C483.024 248.913 482.545 249 481.985 249H478.334ZM479.749 247.735H481.985C482.349 247.735 482.634 247.649 482.839 247.476C483.044 247.302 483.147 247.068 483.147 246.771C483.147 246.416 483.044 246.14 482.839 245.944C482.634 245.744 482.349 245.644 481.985 245.644H479.749V247.735ZM479.749 244.543H481.513C481.932 244.543 482.258 244.456 482.491 244.283C482.727 244.11 482.846 243.873 482.846 243.572C482.846 243.281 482.725 243.053 482.484 242.889C482.247 242.72 481.919 242.636 481.499 242.636H479.749V244.543ZM489.418 249.157C488.702 249.157 488.076 248.993 487.538 248.665C487.005 248.337 486.59 247.877 486.294 247.284C485.998 246.692 485.849 246.004 485.849 245.22C485.849 244.427 485.998 243.734 486.294 243.142C486.59 242.545 487.005 242.082 487.538 241.754C488.076 241.426 488.702 241.262 489.418 241.262C490.138 241.262 490.765 241.426 491.298 241.754C491.835 242.082 492.252 242.545 492.549 243.142C492.845 243.734 492.993 244.427 492.993 245.22C492.993 246.004 492.845 246.692 492.549 247.284C492.252 247.877 491.835 248.337 491.298 248.665C490.765 248.993 490.138 249.157 489.418 249.157ZM489.418 247.886C489.883 247.886 490.266 247.765 490.566 247.523C490.872 247.277 491.097 246.954 491.243 246.553C491.393 246.147 491.469 245.703 491.469 245.22C491.469 244.732 491.393 244.285 491.243 243.88C491.097 243.47 490.872 243.144 490.566 242.902C490.266 242.656 489.883 242.533 489.418 242.533C488.958 242.533 488.577 242.656 488.276 242.902C487.975 243.144 487.75 243.467 487.599 243.873C487.454 244.279 487.381 244.728 487.381 245.22C487.381 245.703 487.454 246.147 487.599 246.553C487.75 246.954 487.975 247.277 488.276 247.523C488.577 247.765 488.958 247.886 489.418 247.886Z" fill="#921895"/>
<path d="M323.012 264V256.357H324.516V259.604H325.22L327.756 256.357H329.595L326.655 260.083L329.636 264H327.783L325.486 260.903H324.516V264H323.012ZM330.691 266.857V256.357H332.154V257.602H332.277C332.368 257.442 332.493 257.257 332.653 257.048C332.817 256.838 333.042 256.656 333.33 256.501C333.621 256.341 334.006 256.262 334.485 256.262C335.096 256.262 335.64 256.417 336.119 256.727C336.602 257.036 336.982 257.485 337.26 258.073C337.538 258.661 337.677 259.37 337.677 260.199C337.677 261.02 337.541 261.726 337.267 262.318C336.994 262.906 336.615 263.36 336.132 263.679C335.654 263.993 335.105 264.15 334.485 264.15C334.025 264.15 333.646 264.073 333.35 263.918C333.058 263.758 332.828 263.574 332.66 263.364C332.496 263.155 332.368 262.968 332.277 262.804H332.195V266.857H330.691ZM334.15 262.872C334.587 262.872 334.954 262.754 335.25 262.517C335.547 262.28 335.768 261.958 335.914 261.553C336.064 261.147 336.139 260.691 336.139 260.186C336.139 259.684 336.064 259.235 335.914 258.839C335.768 258.438 335.547 258.121 335.25 257.889C334.959 257.656 334.592 257.54 334.15 257.54C333.721 257.54 333.359 257.652 333.063 257.875C332.767 258.094 332.543 258.401 332.393 258.798C332.243 259.19 332.167 259.652 332.167 260.186C332.167 260.714 332.243 261.181 332.393 261.587C332.548 261.988 332.774 262.302 333.07 262.53C333.366 262.758 333.726 262.872 334.15 262.872ZM345.644 264H344.14V258.825H344.058L340.606 264H339.245V256.357H340.749V261.539H340.824L344.283 256.357H345.644V264ZM347.567 264V256.357H350.732C351.593 256.357 352.277 256.542 352.783 256.911C353.293 257.276 353.549 257.772 353.549 258.401C353.549 258.839 353.407 259.19 353.125 259.454C352.847 259.718 352.466 259.898 351.983 259.994C352.329 260.031 352.646 260.133 352.933 260.302C353.22 260.466 353.451 260.687 353.624 260.965C353.797 261.238 353.883 261.564 353.883 261.942C353.883 262.343 353.776 262.701 353.562 263.016C353.353 263.326 353.049 263.567 352.653 263.74C352.257 263.913 351.778 264 351.217 264H347.567ZM348.982 262.735H351.217C351.582 262.735 351.867 262.649 352.072 262.476C352.277 262.302 352.38 262.068 352.38 261.771C352.38 261.416 352.277 261.14 352.072 260.944C351.867 260.744 351.582 260.644 351.217 260.644H348.982V262.735ZM348.982 259.543H350.746C351.165 259.543 351.491 259.456 351.723 259.283C351.96 259.11 352.079 258.873 352.079 258.572C352.079 258.281 351.958 258.053 351.716 257.889C351.48 257.72 351.151 257.636 350.732 257.636H348.982V259.543ZM358.651 264.157C357.935 264.157 357.309 263.993 356.771 263.665C356.238 263.337 355.823 262.877 355.527 262.284C355.23 261.692 355.082 261.004 355.082 260.22C355.082 259.427 355.23 258.734 355.527 258.142C355.823 257.545 356.238 257.082 356.771 256.754C357.309 256.426 357.935 256.262 358.651 256.262C359.371 256.262 359.997 256.426 360.531 256.754C361.068 257.082 361.485 257.545 361.782 258.142C362.078 258.734 362.226 259.427 362.226 260.22C362.226 261.004 362.078 261.692 361.782 262.284C361.485 262.877 361.068 263.337 360.531 263.665C359.997 263.993 359.371 264.157 358.651 264.157ZM358.651 262.886C359.116 262.886 359.498 262.765 359.799 262.523C360.104 262.277 360.33 261.954 360.476 261.553C360.626 261.147 360.701 260.703 360.701 260.22C360.701 259.732 360.626 259.285 360.476 258.88C360.33 258.47 360.104 258.144 359.799 257.902C359.498 257.656 359.116 257.533 358.651 257.533C358.19 257.533 357.81 257.656 357.509 257.902C357.208 258.144 356.983 258.467 356.832 258.873C356.686 259.279 356.614 259.728 356.614 260.22C356.614 260.703 356.686 261.147 356.832 261.553C356.983 261.954 357.208 262.277 357.509 262.523C357.81 262.765 358.19 262.886 358.651 262.886Z" fill="#921895"/>
<path d="M319.909 209.748L320.278 208.524L320.449 208.565C320.709 208.634 320.941 208.652 321.146 208.62C321.356 208.588 321.536 208.49 321.686 208.326C321.841 208.167 321.964 207.923 322.056 207.595L322.22 207.034L319.314 199.357H320.941L322.452 203.698C322.621 204.181 322.76 204.662 322.869 205.141C322.983 205.619 323.106 206.095 323.238 206.569H322.773C322.905 206.095 323.031 205.619 323.149 205.141C323.272 204.658 323.418 204.177 323.587 203.698L325.125 199.357H326.738L323.416 208.06C323.261 208.47 323.07 208.812 322.842 209.085C322.618 209.358 322.352 209.563 322.042 209.7C321.732 209.841 321.372 209.912 320.962 209.912C320.725 209.912 320.513 209.894 320.326 209.857C320.139 209.826 320 209.789 319.909 209.748ZM329.79 207V200.629H327.308V199.357H333.761V200.629H331.293V207H329.79ZM337.749 207.157C337.034 207.157 336.407 206.993 335.869 206.665C335.336 206.337 334.921 205.877 334.625 205.284C334.329 204.692 334.181 204.004 334.181 203.22C334.181 202.427 334.329 201.734 334.625 201.142C334.921 200.545 335.336 200.082 335.869 199.754C336.407 199.426 337.034 199.262 337.749 199.262C338.469 199.262 339.096 199.426 339.629 199.754C340.167 200.082 340.584 200.545 340.88 201.142C341.176 201.734 341.324 202.427 341.324 203.22C341.324 204.004 341.176 204.692 340.88 205.284C340.584 205.877 340.167 206.337 339.629 206.665C339.096 206.993 338.469 207.157 337.749 207.157ZM337.749 205.886C338.214 205.886 338.597 205.765 338.898 205.523C339.203 205.277 339.428 204.954 339.574 204.553C339.725 204.147 339.8 203.703 339.8 203.22C339.8 202.732 339.725 202.285 339.574 201.88C339.428 201.47 339.203 201.144 338.898 200.902C338.597 200.656 338.214 200.533 337.749 200.533C337.289 200.533 336.908 200.656 336.607 200.902C336.307 201.144 336.081 201.467 335.931 201.873C335.785 202.279 335.712 202.728 335.712 203.22C335.712 203.703 335.785 204.147 335.931 204.553C336.081 204.954 336.307 205.277 336.607 205.523C336.908 205.765 337.289 205.886 337.749 205.886ZM349.222 199.357V207H347.718V200.656H344.41V207H342.899V199.357H349.222ZM357.551 207H356.047V201.825H355.965L352.513 207H351.153V199.357H352.657V204.539H352.732L356.191 199.357H357.551V207ZM365.319 207H363.856V200.608H362.27C361.673 200.608 361.24 200.715 360.972 200.93C360.707 201.144 360.575 201.447 360.575 201.839C360.575 202.226 360.707 202.525 360.972 202.734C361.24 202.944 361.671 203.049 362.264 203.049H364.478V204.225H362.134C361.122 204.225 360.359 204.006 359.844 203.568C359.333 203.131 359.078 202.552 359.078 201.832C359.078 201.098 359.331 200.504 359.837 200.048C360.347 199.588 361.108 199.357 362.12 199.357H365.319V207ZM360.438 207H358.75L360.89 203.527H362.537L360.438 207Z" fill="#921895"/>
<path d="M269.273 165.208V161.701H269.889C270.048 161.555 270.182 161.382 270.292 161.182C270.406 160.981 270.502 160.742 270.579 160.464C270.656 160.181 270.72 159.853 270.77 159.479C270.825 159.106 270.873 158.68 270.914 158.201L271.153 155.357H276.369V161.701H277.531V165.208H276.068V163H270.764V165.208H269.273ZM271.509 161.701H274.906V156.649H272.473L272.336 158.201C272.272 159.017 272.179 159.716 272.056 160.3C271.937 160.879 271.755 161.346 271.509 161.701ZM281.697 163.157C280.981 163.157 280.355 162.993 279.817 162.665C279.284 162.337 278.869 161.877 278.573 161.284C278.277 160.692 278.128 160.004 278.128 159.22C278.128 158.427 278.277 157.734 278.573 157.142C278.869 156.545 279.284 156.082 279.817 155.754C280.355 155.426 280.981 155.262 281.697 155.262C282.417 155.262 283.043 155.426 283.577 155.754C284.114 156.082 284.531 156.545 284.828 157.142C285.124 157.734 285.272 158.427 285.272 159.22C285.272 160.004 285.124 160.692 284.828 161.284C284.531 161.877 284.114 162.337 283.577 162.665C283.043 162.993 282.417 163.157 281.697 163.157ZM281.697 161.886C282.162 161.886 282.544 161.765 282.845 161.523C283.151 161.277 283.376 160.954 283.522 160.553C283.672 160.147 283.748 159.703 283.748 159.22C283.748 158.732 283.672 158.285 283.522 157.88C283.376 157.47 283.151 157.144 282.845 156.902C282.544 156.656 282.162 156.533 281.697 156.533C281.236 156.533 280.856 156.656 280.555 156.902C280.254 157.144 280.029 157.467 279.878 157.873C279.733 158.279 279.66 158.728 279.66 159.22C279.66 159.703 279.733 160.147 279.878 160.553C280.029 160.954 280.254 161.277 280.555 161.523C280.856 161.765 281.236 161.886 281.697 161.886ZM286.847 165.857V155.357H288.31V156.602H288.433C288.524 156.442 288.649 156.257 288.809 156.048C288.973 155.838 289.198 155.656 289.485 155.501C289.777 155.341 290.162 155.262 290.641 155.262C291.251 155.262 291.796 155.417 292.274 155.727C292.758 156.036 293.138 156.485 293.416 157.073C293.694 157.661 293.833 158.37 293.833 159.199C293.833 160.02 293.696 160.726 293.423 161.318C293.149 161.906 292.771 162.36 292.288 162.679C291.81 162.993 291.26 163.15 290.641 163.15C290.18 163.15 289.802 163.073 289.506 162.918C289.214 162.758 288.984 162.574 288.816 162.364C288.651 162.155 288.524 161.968 288.433 161.804H288.351V165.857H286.847ZM290.306 161.872C290.743 161.872 291.11 161.754 291.406 161.517C291.703 161.28 291.924 160.958 292.069 160.553C292.22 160.147 292.295 159.691 292.295 159.186C292.295 158.684 292.22 158.235 292.069 157.839C291.924 157.438 291.703 157.121 291.406 156.889C291.115 156.656 290.748 156.54 290.306 156.54C289.877 156.54 289.515 156.652 289.219 156.875C288.923 157.094 288.699 157.401 288.549 157.798C288.399 158.19 288.323 158.652 288.323 159.186C288.323 159.714 288.399 160.181 288.549 160.587C288.704 160.988 288.929 161.302 289.226 161.53C289.522 161.758 289.882 161.872 290.306 161.872ZM298.614 163.157C297.898 163.157 297.272 162.993 296.734 162.665C296.201 162.337 295.786 161.877 295.49 161.284C295.194 160.692 295.046 160.004 295.046 159.22C295.046 158.427 295.194 157.734 295.49 157.142C295.786 156.545 296.201 156.082 296.734 155.754C297.272 155.426 297.898 155.262 298.614 155.262C299.334 155.262 299.961 155.426 300.494 155.754C301.032 156.082 301.449 156.545 301.745 157.142C302.041 157.734 302.189 158.427 302.189 159.22C302.189 160.004 302.041 160.692 301.745 161.284C301.449 161.877 301.032 162.337 300.494 162.665C299.961 162.993 299.334 163.157 298.614 163.157ZM298.614 161.886C299.079 161.886 299.462 161.765 299.762 161.523C300.068 161.277 300.293 160.954 300.439 160.553C300.59 160.147 300.665 159.703 300.665 159.22C300.665 158.732 300.59 158.285 300.439 157.88C300.293 157.47 300.068 157.144 299.762 156.902C299.462 156.656 299.079 156.533 298.614 156.533C298.154 156.533 297.773 156.656 297.472 156.902C297.172 157.144 296.946 157.467 296.796 157.873C296.65 158.279 296.577 158.728 296.577 159.22C296.577 159.703 296.65 160.147 296.796 160.553C296.946 160.954 297.172 161.277 297.472 161.523C297.773 161.765 298.154 161.886 298.614 161.886ZM308.665 155.357V156.656H305.268V163H303.764V155.357H308.665ZM312.783 163.157C312.068 163.157 311.441 162.993 310.903 162.665C310.37 162.337 309.955 161.877 309.659 161.284C309.363 160.692 309.215 160.004 309.215 159.22C309.215 158.427 309.363 157.734 309.659 157.142C309.955 156.545 310.37 156.082 310.903 155.754C311.441 155.426 312.068 155.262 312.783 155.262C313.503 155.262 314.13 155.426 314.663 155.754C315.201 156.082 315.618 156.545 315.914 157.142C316.21 157.734 316.358 158.427 316.358 159.22C316.358 160.004 316.21 160.692 315.914 161.284C315.618 161.877 315.201 162.337 314.663 162.665C314.13 162.993 313.503 163.157 312.783 163.157ZM312.783 161.886C313.248 161.886 313.631 161.765 313.932 161.523C314.237 161.277 314.462 160.954 314.608 160.553C314.759 160.147 314.834 159.703 314.834 159.22C314.834 158.732 314.759 158.285 314.608 157.88C314.462 157.47 314.237 157.144 313.932 156.902C313.631 156.656 313.248 156.533 312.783 156.533C312.323 156.533 311.942 156.656 311.641 156.902C311.341 157.144 311.115 157.467 310.965 157.873C310.819 158.279 310.746 158.728 310.746 159.22C310.746 159.703 310.819 160.147 310.965 160.553C311.115 160.954 311.341 161.277 311.641 161.523C311.942 161.765 312.323 161.886 312.783 161.886Z" fill="#921895"/>
<path d="M396.273 165.208V161.701H396.889C397.048 161.555 397.182 161.382 397.292 161.182C397.406 160.981 397.502 160.742 397.579 160.464C397.656 160.181 397.72 159.853 397.77 159.479C397.825 159.106 397.873 158.68 397.914 158.201L398.153 155.357H403.369V161.701H404.531V165.208H403.068V163H397.764V165.208H396.273ZM398.509 161.701H401.906V156.649H399.473L399.336 158.201C399.272 159.017 399.179 159.716 399.056 160.3C398.937 160.879 398.755 161.346 398.509 161.701ZM408.697 163.157C407.981 163.157 407.355 162.993 406.817 162.665C406.284 162.337 405.869 161.877 405.573 161.284C405.277 160.692 405.128 160.004 405.128 159.22C405.128 158.427 405.277 157.734 405.573 157.142C405.869 156.545 406.284 156.082 406.817 155.754C407.355 155.426 407.981 155.262 408.697 155.262C409.417 155.262 410.043 155.426 410.577 155.754C411.114 156.082 411.531 156.545 411.828 157.142C412.124 157.734 412.272 158.427 412.272 159.22C412.272 160.004 412.124 160.692 411.828 161.284C411.531 161.877 411.114 162.337 410.577 162.665C410.043 162.993 409.417 163.157 408.697 163.157ZM408.697 161.886C409.162 161.886 409.544 161.765 409.845 161.523C410.151 161.277 410.376 160.954 410.522 160.553C410.672 160.147 410.748 159.703 410.748 159.22C410.748 158.732 410.672 158.285 410.522 157.88C410.376 157.47 410.151 157.144 409.845 156.902C409.544 156.656 409.162 156.533 408.697 156.533C408.236 156.533 407.856 156.656 407.555 156.902C407.254 157.144 407.029 157.467 406.878 157.873C406.733 158.279 406.66 158.728 406.66 159.22C406.66 159.703 406.733 160.147 406.878 160.553C407.029 160.954 407.254 161.277 407.555 161.523C407.856 161.765 408.236 161.886 408.697 161.886ZM412.972 163V161.701H413.238C413.448 161.701 413.623 161.658 413.765 161.571C413.911 161.485 414.029 161.337 414.12 161.127C414.216 160.917 414.289 160.623 414.339 160.245C414.389 159.867 414.428 159.386 414.455 158.803L414.585 155.357H420.013V163H418.502V156.656H416.021L415.911 159.199C415.875 160.065 415.77 160.781 415.597 161.346C415.428 161.906 415.171 162.323 414.824 162.597C414.482 162.866 414.034 163 413.478 163H412.972ZM426.838 155.357V156.656H423.44V163H421.936V155.357H426.838ZM430.955 163.157C430.24 163.157 429.613 162.993 429.075 162.665C428.542 162.337 428.128 161.877 427.831 161.284C427.535 160.692 427.387 160.004 427.387 159.22C427.387 158.427 427.535 157.734 427.831 157.142C428.128 156.545 428.542 156.082 429.075 155.754C429.613 155.426 430.24 155.262 430.955 155.262C431.675 155.262 432.302 155.426 432.835 155.754C433.373 156.082 433.79 156.545 434.086 157.142C434.382 157.734 434.531 158.427 434.531 159.22C434.531 160.004 434.382 160.692 434.086 161.284C433.79 161.877 433.373 162.337 432.835 162.665C432.302 162.993 431.675 163.157 430.955 163.157ZM430.955 161.886C431.42 161.886 431.803 161.765 432.104 161.523C432.409 161.277 432.635 160.954 432.781 160.553C432.931 160.147 433.006 159.703 433.006 159.22C433.006 158.732 432.931 158.285 432.781 157.88C432.635 157.47 432.409 157.144 432.104 156.902C431.803 156.656 431.42 156.533 430.955 156.533C430.495 156.533 430.115 156.656 429.814 156.902C429.513 157.144 429.287 157.467 429.137 157.873C428.991 158.279 428.918 158.728 428.918 159.22C428.918 159.703 428.991 160.147 429.137 160.553C429.287 160.954 429.513 161.277 429.814 161.523C430.115 161.765 430.495 161.886 430.955 161.886Z" fill="#921895"/>
<path fill-rule="evenodd" clip-rule="evenodd" d="M32 34.5C32 33.1193 33.1193 32 34.5 32H45.875C47.2557 32 48.375 33.1193 48.375 34.5V44.75C48.375 46.1307 47.2557 47.25 45.875 47.25H39.625C38.5204 47.25 37.625 48.1454 37.625 49.25V55.1875C37.625 56.7408 36.3658 58 34.8125 58C33.2592 58 32 56.7408 32 55.1875V34.5ZM40.25 43.375C42.3211 43.375 44 41.696 44 39.625C44 37.5539 42.3211 35.875 40.25 35.875C38.1789 35.875 36.5 37.5539 36.5 39.625C36.5 41.696 38.1789 43.375 40.25 43.375Z" fill="#921895"/>
</svg>
